<svg width="152" height="50" viewBox="0 0 152 50" fill="none" xmlns="http://www.w3.org/2000/svg">
<path d="M2.53748 12.4309C3.13205 7.59063 6.78804 3.69027 11.5798 2.7842L11.8368 2.73561C21.396 0.928054 31.2103 0.937531 40.7661 2.76355C45.5524 3.67817 49.1686 7.62956 49.6565 12.478L49.9372 15.267C50.6115 21.9683 50.6115 28.7204 49.9372 35.4218L49.7681 37.1021C49.2175 42.573 45.0523 46.9874 39.6226 47.8543C30.7205 49.2758 21.5752 49.264 12.6731 47.8425C7.29161 46.9832 3.07806 42.6586 2.41363 37.2496L2.33249 36.5891C1.41509 29.1207 1.41509 21.5681 2.33249 14.0997L2.53748 12.4309Z" fill="#1A1D27"/>
<path d="M15.6846 32.2997C14.2778 31.7881 14.1393 30.5945 14.2458 30.0617C14.5656 28.6229 15.8444 27.1842 17.7627 25.9053C19.681 24.6265 23.0381 24.6265 23.3578 24.6265C23.6775 24.6265 25.4359 24.6265 29.912 24.7863C33.4928 24.9142 33.8551 27.0776 33.5887 28.1434L31.9901 34.218C31.3507 36.6478 29.2725 36.6158 28.3134 36.2961L23.1979 34.6975C21.2796 34.1114 17.0913 32.8112 15.6846 32.2997Z" fill="white" stroke="white" stroke-width="1.87994" stroke-linejoin="round"/>
<path opacity="0.5" d="M27.4401 17.8467C26.5725 18.8933 24.4675 21.6422 23.8091 22.9391L27.4401 22.9391C34.1965 22.6972 34.5276 24.5534 34.9992 25.5746C35.1434 24.9844 35.7869 22.6134 36.6 19.5214C37.6163 15.6563 37.5566 13.4191 34.1965 13.3488C30.8364 13.2785 28.5246 16.5385 27.4401 17.8467Z" fill="white" stroke="white" stroke-width="1.87994" stroke-linejoin="round"/>
<path d="M70.5222 19.8696V23.9251H68.477C66.2344 23.9251 65.0299 25.1954 65.0299 27.3557V36.6732H61.1553V20.2006H64.4359L64.7648 22.922C65.4739 21.1584 67.2211 19.8717 69.6301 19.8717H70.5222V19.8696Z" fill="#1A1D27"/>
<path d="M72.4598 29.5653V20.1985H76.3179V29.8449C76.3179 32.2354 77.7527 33.7688 80.0281 33.7688C82.32 33.7688 83.7383 32.2354 83.7383 29.8449V20.1985H87.6128V29.6147C87.6128 34.2477 84.8749 37.0514 79.9952 37.0514C75.1299 37.0514 72.4598 34.184 72.4598 29.5653Z" fill="#1A1D27"/>
<path d="M107.49 28.4451C107.49 33.59 103.747 37.0864 99.2128 37.0864C96.7401 37.0864 94.662 36.0484 93.2766 34.2334L92.847 36.6732H89.55V13.2571L93.4246 12.8789V22.476C94.81 20.7781 96.8552 19.7874 99.2622 19.7874C103.862 19.7874 107.49 23.3496 107.49 28.4451ZM103.614 28.4451C103.614 25.3783 101.404 23.1851 98.6003 23.1851C95.7637 23.1851 93.4225 25.4112 93.4225 28.4451C93.4225 31.479 95.7637 33.6887 98.6003 33.6887C101.404 33.6887 103.614 31.4955 103.614 28.4451Z" fill="#1A1D27"/>
<path d="M109.427 15.4174C109.427 14.0484 110.449 13.0762 111.851 13.0762C113.253 13.0762 114.274 14.0484 114.274 15.4174C114.274 16.7863 113.253 17.7586 111.851 17.7586C110.449 17.7586 109.427 16.7863 109.427 15.4174ZM109.906 36.6732V20.2005H113.781V36.6732H109.906Z" fill="#1A1D27"/>
<path d="M133.985 29.7464H120.117C120.446 32.0054 122.343 33.9683 125.18 34.0012C127.356 34.0177 129.237 32.8974 129.996 31.1976L133.328 32.5665C131.975 35.3044 129.04 37.1174 125.198 37.1174C119.889 37.1174 116.212 33.4565 116.212 28.4761C116.212 23.3312 120.201 19.769 125.165 19.769C130.343 19.769 134.02 23.545 134.02 28.5912C134.018 29.0064 134.018 29.3024 133.985 29.7464ZM120.199 26.696H129.944C129.465 24.3877 127.554 22.8708 125.079 22.8708C122.656 22.8708 120.693 24.4864 120.199 26.696Z" fill="#1A1D27"/>
<path d="M135.957 32.2046L139.602 31.2982C139.947 33.0289 141.267 34.2169 143.709 34.2169C145.82 34.2169 147.156 33.3762 147.156 32.0237C147.156 31.0186 146.299 30.4575 145.028 30.2108L140.889 29.403C138.366 28.9076 136.568 27.4564 136.568 24.885C136.568 21.5531 139.536 19.7566 143.659 19.7566C147.799 19.7566 150.551 21.6024 151.047 24.5726L147.419 25.4791C147.09 23.7155 145.787 22.6754 143.528 22.6754C141.696 22.6754 140.313 23.3023 140.313 24.7042C140.313 25.7422 141.187 26.2869 142.473 26.5356L146.662 27.3434C149.384 27.8717 151.049 29.3722 151.049 31.8285C151.049 35.2755 147.966 37.1214 143.645 37.1214C139.191 37.1193 136.453 35.1727 135.957 32.2046Z" fill="#1A1D27"/>
</svg>
