<svg width="30" height="30" viewBox="0 0 30 30" fill="none" xmlns="http://www.w3.org/2000/svg">
<circle cx="15" cy="15" r="15" fill="#DB657B" fill-opacity="0.1"/>
<path d="M19.7177 10.291C19.4676 10.0343 19.0974 9.93867 18.7523 10.0393L10.704 12.3798C10.3398 12.4809 10.0817 12.7713 10.0122 13.1403C9.94119 13.5158 10.1893 13.9924 10.5134 14.1917L13.03 15.7384C13.2881 15.897 13.6212 15.8572 13.8348 15.6418L16.7165 12.7422C16.8615 12.5912 17.1016 12.5912 17.2467 12.7422C17.3917 12.8881 17.3917 13.1247 17.2467 13.2757L14.36 16.1758C14.1459 16.3907 14.1059 16.7254 14.2635 16.9851L15.8011 19.5269C15.9812 19.8289 16.2913 20 16.6314 20C16.6714 20 16.7165 20 16.7565 19.995C17.1466 19.9446 17.4568 19.6779 17.5718 19.3004L19.9578 11.2624C20.0628 10.9201 19.9678 10.5477 19.7177 10.291Z" fill="#DB657B"/>
</svg>
