<svg width="41" height="40" viewBox="0 0 41 40" fill="none" xmlns="http://www.w3.org/2000/svg">
<circle cx="20.5" cy="20" r="15" fill="#DB657B" fill-opacity="0.1"/>
<g clip-path="url(#clip0_5546_165215)">
<path d="M27 18.6665C27 23.3332 21 27.3332 21 27.3332C21 27.3332 15 23.3332 15 18.6665C15 17.0752 15.6321 15.5491 16.7574 14.4239C17.8826 13.2986 19.4087 12.6665 21 12.6665C22.5913 12.6665 24.1174 13.2986 25.2426 14.4239C26.3679 15.5491 27 17.0752 27 18.6665Z" stroke="#DB657B" stroke-width="1.5" stroke-linecap="round" stroke-linejoin="round"/>
<path d="M21 20.6665C22.1046 20.6665 23 19.7711 23 18.6665C23 17.5619 22.1046 16.6665 21 16.6665C19.8954 16.6665 19 17.5619 19 18.6665C19 19.7711 19.8954 20.6665 21 20.6665Z" stroke="#DB657B" stroke-width="1.5" stroke-linecap="round" stroke-linejoin="round"/>
</g>
<defs>
<clipPath id="clip0_5546_165215">
<rect width="16" height="16" fill="white" transform="translate(13 12)"/>
</clipPath>
</defs>
</svg>
