<svg width="41" height="40" viewBox="0 0 41 40" fill="none" xmlns="http://www.w3.org/2000/svg">
<circle cx="20.5" cy="20" r="15" fill="#DB657B" fill-opacity="0.1"/>
<path d="M26.3334 26V24.6667C26.3334 23.9594 26.0525 23.2811 25.5524 22.781C25.0523 22.281 24.374 22 23.6667 22H18.3334C17.6262 22 16.9479 22.281 16.4478 22.781C15.9477 23.2811 15.6667 23.9594 15.6667 24.6667V26M23.6667 16.6667C23.6667 18.1394 22.4728 19.3333 21.0001 19.3333C19.5273 19.3333 18.3334 18.1394 18.3334 16.6667C18.3334 15.1939 19.5273 14 21.0001 14C22.4728 14 23.6667 15.1939 23.6667 16.6667Z" stroke="#DB657B" stroke-width="1.5" stroke-linecap="round" stroke-linejoin="round"/>
</svg>
