
        <svg xmlns="http://www.w3.org/2000/svg" xmlns:xlink="http://www.w3.org/1999/xlink" version="1.1" width="3171.4285714285716" height="1361.5317984347166" viewBox="0 0 3171.4285714285716 1361.5317984347166">
			
			<g transform="scale(8.571428571428573) translate(10, 10)">
				<defs id="SvgjsDefs3688"/><g id="SvgjsG3689" featureKey="nameFeature-0" transform="matrix(3.3430131511924386,0,0,3.3430131511924386,-4.279056737881948,-34.541257703471096)" fill="#fff"><path d="M18.76 39.48 c-0.16 -0.08 -1.16 -0.2 -1.92 -0.2 c-0.48 0 -0.76 0.04 -0.76 0.2 l-0.24 -0.28 s-2.04 0.28 -3.24 0.28 c-3.08 0 0.6 -0.28 -6.4 -0.28 c-0.12 0 -1.04 0.28 -1.28 0.28 l-0.36 -0.12 c-0.72 0 -1.64 0 -1.6 0 c-1.28 0 -1.68 -0.56 -1.68 -1.24 c0 -0.96 0.76 -2.08 0.84 -2.08 l0 -1.52 c0 -0.48 0.48 -1 0.28 -1.28 c-0.16 -0.64 0.12 -2.52 -0.4 -2.8 l0 -0.36 c0 -0.76 0.24 -1.4 0.24 -2.04 c0 -0.6 -0.28 -1.16 -0.28 -1.44 c0 -0.2 0.2 -0.24 0.28 -0.48 c0 -0.12 -0.04 -0.24 -0.04 -0.36 c0 -0.32 0.2 -0.48 0.2 -0.88 c0 -0.24 -0.24 -1.32 -0.24 -1.84 c0 -0.16 0.04 -0.28 0.08 -0.32 l0 -1.52 l-0.12 -0.12 c0.28 -0.28 0.36 -0.72 0.36 -1.12 s-0.48 -1.36 -0.48 -1.8 c0 -1.12 0.44 -1.68 0.44 -2.52 c0 -1 -0.64 -1.92 -0.96 -2.84 c0.2 -1.56 1.12 -1.8 2.2 -1.8 c0.44 0 0.96 0.04 1.44 0.04 c0.56 0 1.12 -0.04 1.6 -0.28 c0.36 0.04 0.72 0.04 1.08 0.04 c2.6 0 6.28 -0.68 7.8 -0.4 l0.24 0.12 c0.88 0 2.04 0 2.92 0.12 c1.16 0.28 2.4 0.12 3.56 0.52 c0.04 -0.2 0.16 -0.28 0.28 -0.28 c0.36 0 0.92 0.52 1 0.52 c0.48 0.08 1.52 0.16 2.16 0.28 c1 0.2 1.44 1 2.52 1 c-0.28 0 2.16 0.4 2.16 1.28 c0.28 0.64 1.8 1.12 2.16 1.88 c0.12 0.24 1.04 1.04 1.44 1.04 l0.08 0 s-0.12 0.24 -0.12 0.36 s0.76 0.64 0.88 0.76 c0.16 1.48 0.92 1.56 1.4 2.8 c0.28 0.64 0.28 1.36 0.28 2.16 c0.12 0.76 0.24 1.4 0.24 2.28 c-0.12 0.08 -0.16 0.12 -0.16 0.16 c0 0.12 0.28 0.16 0.28 0.32 c0 0 -0.04 0.12 -0.12 0.16 c-0.2 0.08 -0.08 1.92 -0.24 2.92 c-0.24 0.64 -0.68 1.24 -0.68 1.96 c0 0.08 0.04 0.2 0.04 0.32 c-0.68 0.28 -0.52 0.48 -0.92 1.16 c-1.2 0.88 -1.24 1.8 -2.64 2.8 c-0.12 0.04 -0.12 0.16 -0.12 0.24 c0 0.76 -2.36 1.2 -2.92 2.16 l-1.68 0.4 c-0.24 0.48 -4.44 1 -4.56 1.36 l-3.04 0 c-0.4 0 -0.64 0.32 -1 0.32 c-0.08 0 -0.16 0 -0.28 -0.04 z M9.12 37.96 l0.12 0.12 c0.52 -0.24 1.6 -0.56 1.68 -0.56 s0.16 0.04 0.16 0.08 s-0.04 0.12 -0.2 0.24 c0.24 -0.12 0.6 -0.28 0.64 -0.28 c0.48 0 1.4 0.36 1.88 0.36 c0.16 0 0.24 0 0.28 -0.08 c0.96 -0.12 2.2 -0.32 3.32 -0.32 c0.88 0 1.12 0.44 1.4 0.44 c0.36 -0.12 1.88 -0.64 1.88 -0.76 l0 -0.12 c-0.28 0 -0.8 -0.56 -1.08 -0.56 c-0.4 0 -0.76 0.6 -1.16 0.6 c-0.08 0 -0.16 -0.08 -0.28 -0.04 l0 0.24 c-0.04 0.04 -0.24 -0.08 -0.4 -0.12 c-0.68 0 -1.96 -0.04 -2.52 0.36 c-0.64 0 -1.4 -0.36 -2.04 -0.36 c-0.28 0 -0.8 0.12 -1.24 0.12 c-0.2 0 -0.44 -0.04 -0.56 -0.12 c-1.32 0 -2.92 -0.08 -4.04 0.12 l-0.24 -0.12 l-1.68 0 c-0.12 0 -0.88 -0.28 -1 -0.28 l-0.12 0 l0 0.92 c0.12 0 0.36 0 0.36 -0.16 c0.84 0.24 1.8 0.36 2.72 0.36 c0.48 0 0.96 -0.04 1.36 -0.08 c0.04 -0.2 0.12 -0.28 0.24 -0.28 c0.16 0 0.36 0.2 0.52 0.28 z M20.68 37.32 c0.08 0.08 0.2 0.12 0.28 0.12 c0.12 0 0.28 -0.08 0.36 -0.24 c-0.16 -0.08 -0.32 -0.16 -0.44 -0.16 c-0.08 0 -0.24 0.08 -0.2 0.28 z M21.56 36.92 c-0.04 0 -0.08 0.08 -0.08 0.12 c0 0.08 0.04 0.16 0.08 0.16 c0.08 0 0.08 -0.08 0.08 -0.16 c0 -0.04 0 -0.12 -0.08 -0.12 z M22.84 36.8 c-0.08 0.16 0.32 0.12 0.64 0.12 c0.4 0 0.84 -0.04 1 -0.36 l1.76 -0.4 c0 -0.36 0.4 -0.24 0.52 -0.48 l1.64 -0.76 c0.16 0 0.16 -0.8 0.16 -0.92 l-5.36 0 c-0.16 -0.08 -0.28 -0.12 -0.4 -0.12 c-0.44 0 -0.6 0.4 -0.6 0.64 c0 0.16 0.04 0.24 0.12 0.24 l1 0 c0 -0.16 0.2 -0.24 0.44 -0.24 c0.28 0 0.6 0.12 0.72 0.24 l2.68 0 c0.08 0.04 0.12 0.2 0.12 0.2 c0 0.68 -4.64 0.72 -5.08 0.72 c-0.2 -0.12 -0.48 -0.4 -0.52 -0.28 l0 -0.36 l-0.04 0 c-0.28 0 -1.2 0.6 -1.2 0.96 c0 0.08 0.04 0.12 0.12 0.16 c0.64 0 1.52 -0.12 1.52 -0.12 c0.12 0 0.76 0.4 0.88 0.4 c0.04 0.08 -0.04 0.24 -0.12 0.36 z M3.28 36.56 c-0.04 0 -0.08 0.04 -0.08 0.04 c0 0.04 0.04 0.08 0.08 0.08 c0.08 0 0.08 -0.04 0.08 -0.08 c0 0 0 -0.04 -0.08 -0.04 z M3.76 36.44 l0.16 0.12 l0.48 -0.4 l3.68 0 c0.16 -0.12 0.4 -0.16 0.64 -0.16 c0.44 0 0.96 0.16 1.4 0.16 c0.28 -0.2 0.4 -0.36 0.4 -0.48 c0 -0.2 -0.36 -0.24 -0.8 -0.24 c-0.88 0 -1.6 0.28 -1.72 0.28 c-0.48 0 -0.88 -0.56 -1.12 -0.56 s-0.36 0.4 -0.64 0.4 c-0.36 0 -1.6 -0.28 -2.48 -0.28 l0 1.16 z M13.56 36.04 c0.28 0.08 0.6 0.12 0.92 0.12 c0.44 0 0.88 -0.04 1.24 -0.12 c0.2 0.08 0.36 0.08 0.56 0.08 c0.76 0 1.56 -0.48 2.08 -0.48 c0.04 0 0.12 0.04 0.16 0.04 c2.52 -1.68 3.8 -2.92 4.32 -6 c0.04 -0.24 0.08 -0.4 0.08 -0.56 c0 -0.36 -0.2 -0.6 -0.2 -0.68 c0.48 -0.96 0.64 -1.48 0.64 -2.12 c0 -0.4 -0.16 -0.88 -0.16 -1.6 c0 -0.4 0.32 -0.92 0.32 -1.36 c0 -0.68 -0.56 -0.76 -0.56 -1.68 c0 -0.2 0.16 -0.24 0.16 -0.36 c0 -0.48 -0.88 -0.92 -0.88 -1.48 c0 -0.24 0.24 -0.4 0.24 -0.6 c0 -0.4 -0.28 -1.24 -0.4 -1.24 c0.08 -0.04 0.12 -0.12 0.12 -0.16 c0 -0.12 -0.08 -0.2 -0.28 -0.2 c-0.24 -0.88 -0.6 -1.4 -1.12 -1.92 c-0.24 -0.24 -0.4 -0.12 -0.76 -0.52 c-0.28 -0.24 -0.4 -0.6 -0.76 -0.76 c-0.4 -0.12 -0.88 0 -1.16 -0.24 c-0.24 -0.24 -0.12 -0.36 -0.48 -0.52 c-0.88 0 -3.2 -0.12 -3.2 -0.12 l-0.24 0.64 l-0.4 -0.24 c-0.2 0.44 -0.24 0.96 -0.24 1.48 l0 1.04 l-0.24 0.12 c0.2 0.32 0.28 0.64 0.28 1 c0 0.64 -0.44 1.28 -0.44 1.88 c0 0.16 0.2 0.24 0.2 0.52 c0 0.04 0 0.08 -0.04 0.16 c0 1.08 0.28 1.96 0.28 2.92 c0 0.2 0 0.36 -0.04 0.52 l-0.24 0 c-0.04 0.08 -0.04 0.24 -0.04 0.4 c0 0.88 0.32 2.44 0.52 2.76 c-0.24 0 -0.28 0.28 -0.28 0.8 c0 0.68 0.12 1.56 0.12 2.08 c0 0.68 -0.56 0.56 -0.6 0.8 c0.16 0.16 0.36 1.36 0.36 2.24 c0 0.56 -0.08 1 -0.28 1 c0 0 -0.04 -0.04 -0.08 -0.04 c0 0.12 0.12 0.36 0.28 0.48 c0 0.28 -0.04 0.52 -0.04 0.72 c0 0.24 0.04 0.48 0.28 0.68 c0 0.12 -0.12 0.24 -0.12 0.36 c0 0.08 0.04 0.12 0.12 0.16 z M21.8 34.519999999999996 c-0.04 0 -0.08 0.04 -0.08 0.12 c0 0.04 0.04 0.12 0.08 0.12 c0.08 0 0.08 -0.08 0.08 -0.12 c0 -0.08 0 -0.12 -0.08 -0.12 z M5.56 34.28 c0.36 0 1 0.24 1.12 0.24 s0.28 -0.04 0.28 -0.24 c0.44 0 1.32 0.2 2.12 0.2 c0.64 0 1.36 -0.16 1.36 -0.76 c0 0 -0.16 -0.24 -0.4 -0.24 c-0.12 0 -0.12 0.16 -0.28 0.16 l-0.12 0 l0 -0.12 c-0.24 0 -0.52 -0.2 -0.68 -0.2 c-0.24 0 -0.12 0.48 -0.44 0.48 c-0.4 0 -1.04 -0.44 -1.04 -0.44 c-0.08 0.04 -0.2 0.04 -0.32 0.04 c-0.2 0 -0.4 -0.04 -0.56 -0.04 c-0.24 0 -0.4 0.04 -0.52 0.28 c-0.52 0.24 -1.68 0.24 -2.16 0.48 l0.12 0.16 l1.52 0 z M33.24 34.12 c-0.04 0 -0.08 0.04 -0.08 0.08 s0.04 0.08 0.08 0.08 c0.08 0 0.08 -0.04 0.08 -0.08 s0 -0.08 -0.08 -0.08 z M22.72 33.36 l0 0.16 c0.44 -0.56 1.44 -0.4 2.4 -0.4 c0.16 0.24 1.48 0.08 1.52 0.12 l0.12 -0.12 c1.04 0 2 0.04 2.72 0.04 c0.2 0 0.4 0 0.6 -0.04 c0 -0.12 2 -1.76 2.16 -1.92 l0 -0.28 c0 -0.92 0.64 -1.24 0.64 -1.84 c0 -0.04 -0.04 -0.12 -0.04 -0.16 c-0.08 0.04 -0.16 0.04 -0.24 0.04 c-0.36 0 -0.68 -0.28 -1 -0.28 c-0.56 0 -2.04 0.28 -3 0.28 c-0.4 0 -0.68 -0.04 -0.84 -0.16 l-3.04 0 c-0.16 0.04 -0.4 0.44 -0.4 0.6 c0 0.28 0.36 0.4 0.72 0.4 c0.2 0 0.36 -0.04 0.44 -0.12 l3.44 0 c0.12 -0.12 0.28 -0.16 0.44 -0.16 c0.44 0 2.8 0.04 2.8 0.68 c0 0.24 -1.36 0.4 -2.24 0.4 l-3.28 0 c-0.12 -0.08 -0.24 -0.12 -0.32 -0.12 c-0.2 0 -1.36 0.12 -2.08 0.12 c-0.16 0 -1.04 1.4 -1.28 1.64 c0 0.12 -0.24 1 -0.24 1.12 z M32.72 33.12 c-0.04 0 -0.08 0.04 -0.08 0.12 c0 0.04 0.04 0.12 0.08 0.12 c0.08 0 0.08 -0.08 0.08 -0.12 c0 -0.08 0 -0.12 -0.08 -0.12 z M11 32.88 l0 -0.04 c-0.04 0 -0.16 0.08 -0.16 0.12 s0.04 0.04 0.04 0.04 c0.12 0 0.12 0 0.12 -0.12 z M5.68 32.480000000000004 c0.2 0.16 0.36 0.2 0.56 0.2 c0.36 0 0.72 -0.24 1.16 -0.24 c0.16 0 0.36 0.08 0.52 0.08 c0.32 0 0.68 -0.08 1 -0.08 c0.2 0 0.52 0.08 0.84 0.32 l0.08 0 c0.28 0 0.6 -0.52 0.6 -0.88 c0 -0.08 -0.04 -0.12 -0.04 -0.16 c-0.64 0 -1.48 0.12 -1.48 0.12 c-0.04 0 -0.12 -0.04 -0.2 -0.12 c-1.2 0 -2.88 -0.04 -3.4 0.12 l-0.16 0.16 c-0.04 -0.08 -0.8 -0.12 -1 -0.28 c-0.24 0 -0.52 -0.12 -0.52 0.24 c0 0.44 0.24 0.52 0.6 0.52 s0.76 -0.08 1.08 -0.08 c0.16 0 0.28 0 0.36 0.08 z M23.72 32 l0 -0.08 c0 -0.64 1.56 -0.44 2.28 -0.44 l0.12 -0.12 c0.96 -0.12 2.56 0.24 3.8 0.24 c0.16 0 0.52 -0.12 0.64 -0.12 c0.28 0 0.4 0.12 0.4 0.24 c0 0.88 -5.12 0.64 -6.88 0.64 c-0.12 0 -0.36 -0.24 -0.36 -0.36 z M32.6 31.84 l0.4 0.4 c0 -0.2 -0.08 -0.52 -0.24 -0.52 c-0.04 0 -0.08 0.04 -0.16 0.12 z M7.84 30.84 c0.52 0 1.36 0.16 2 0.16 c0.16 0 0.28 -0.04 0.4 -0.04 l0 -0.08 c0 -0.16 0.28 -0.56 0.28 -0.76 c0 -0.08 -0.08 -0.16 -0.28 -0.16 l-1.52 0 c-0.2 -0.16 -0.48 -0.24 -0.76 -0.24 c-0.76 0 -1.68 0.4 -2.44 0.4 c-0.28 0 -0.4 -0.16 -1.24 -0.16 c-0.12 0 -0.64 0.2 -0.64 0.4 c0 0.4 1.72 0.48 2.16 0.48 s0.92 -0.04 1.36 -0.04 c0.24 0 0.48 0 0.68 0.04 z M3.76 30.84 c0 -0.08 -0.04 -0.08 -0.04 -0.08 c-0.04 0 -0.08 0 -0.08 0.08 c0 0.04 0.04 0.08 0.08 0.08 c0 0 0.04 -0.04 0.04 -0.08 z M32.72 30.72 c-0.04 0 -0.08 0.04 -0.08 0.04 c0 0.04 0.04 0.08 0.08 0.08 c0.08 0 0.08 -0.04 0.08 -0.08 c0 0 0 -0.04 -0.08 -0.04 z M13.04 29.84 c-0.04 0 -0.08 0.04 -0.08 0.04 c0 0.04 0.04 0.08 0.08 0.08 c0.08 0 0.08 -0.04 0.08 -0.08 c0 0 0 -0.04 -0.08 -0.04 z M9.12 29.2 l0.52 0.24 c0.48 -0.48 0.88 -0.52 0.88 -2 c0 -0.44 -0.12 -1.08 -0.48 -1.08 c-0.16 0 -0.28 0.16 -0.44 0.16 l-0.12 0 l0 -0.12 c-0.24 0.2 -0.48 0.28 -0.76 0.28 c-0.52 0 -1.08 -0.32 -1.52 -0.32 c-0.12 0 -0.6 0.12 -0.76 0.16 l-0.76 0 c-0.76 0 -1.8 0.04 -1.8 0.4 c0 0.28 0.64 0.64 1.12 0.64 c0.16 0 0.32 -0.04 0.44 -0.16 l1.4 0 c0.08 0.08 0.28 0.12 0.52 0.12 c0.4 0 0.96 -0.08 1.52 -0.08 c0.4 0 1.28 0.08 1.28 0.44 c0 0.48 -0.72 0.56 -0.8 0.56 c-0.24 0 -0.28 -0.16 -0.64 -0.16 c-1.56 0 -4.88 0 -4.88 0.48 c0 0.16 0.08 0.32 0.2 0.32 c0.32 -0.04 0.6 -0.04 0.88 -0.04 c1.2 0 2.28 0.16 3.48 0.16 l0.72 0 z M24.6 28.560000000000002 c-0.04 0 -0.08 0.04 -0.08 0.12 c0 0.04 0.04 0.12 0.08 0.12 c0.08 0 0.08 -0.08 0.08 -0.12 c0 -0.08 0 -0.12 -0.08 -0.12 z M32.48 28.04 l0.52 0.24 l0.12 0 l0 -0.88 l-0.12 -0.12 c-0.44 -0.12 -3.36 0.12 -4.2 0.12 c-0.96 -0.16 -2.08 -0.28 -3.12 -0.28 c-0.44 0 -1.12 -0.12 -1.12 0.32 c0 0.28 0.12 0.52 0.28 0.72 c1.16 0 2.12 -0.36 3.2 -0.36 c0.24 0 0.48 0.08 0.64 0.24 c0.76 0 1.4 -0.16 2.2 -0.16 c0.12 0 1.24 0.16 1.6 0.16 z M33 26.4 l0.24 0.12 c0.08 0.12 0.28 -0.4 0.28 -0.56 c0 -0.36 -0.68 -0.52 -0.76 -0.52 c-0.52 0 -1.04 0.52 -1.56 0.68 c0.08 -0.04 0.2 -0.04 0.28 -0.04 c0.48 0 1.08 0.2 1.52 0.32 z M26.12 26.28 c0.04 0.04 0.08 0.08 0.2 0.08 c0.24 0 0.76 -0.16 1.16 -0.16 c0.16 0 0.32 0 0.44 0.08 l2.52 0 c0.28 0 0.4 -0.08 0.4 -0.2 c0 -0.24 -0.48 -0.6 -1.32 -0.6 c-0.12 0 -0.24 0.04 -0.36 0.04 c0 -0.04 -0.12 -0.04 -0.32 -0.04 c-0.52 0 -1.52 0.08 -2.12 0.08 c-0.4 0 -0.64 -0.2 -1.72 -0.2 c-0.2 -0.08 -0.44 0.48 -0.44 0.76 c0 0.04 0.04 0.12 0.04 0.16 l1.52 0 z M29.56 26.28 c-0.04 0 -0.08 0.04 -0.08 0.12 c0 0.04 0.04 0.12 0.08 0.12 c0.08 0 0.08 -0.08 0.08 -0.12 c0 -0.08 0 -0.12 -0.08 -0.12 z M6.56 25.880000000000003 c0.2 0.08 0.36 0.08 0.52 0.08 c0.44 0 0.8 -0.24 1.48 -0.24 c0.6 0 1.24 0.16 1.84 0.16 c0 -0.4 0.04 -0.88 -0.16 -1 l-1.4 0 c-0.04 0.04 -0.16 0.04 -0.28 0.04 c-0.52 0 -1.52 -0.24 -2.28 -0.24 c-0.52 0 -1.08 0.48 -1.12 0.44 c0.52 0.16 -1.4 -0.56 -1.52 -0.36 l0 0.88 c0.08 -0.08 0.16 -0.08 0.28 -0.08 c0.08 0 0.2 0 0.24 0.08 l1.64 0 c0.28 0.12 0.52 0.12 0.76 0.24 z M32.08 24.759999999999998 c0.08 0.04 0.36 0.08 0.68 0.08 c0.72 0 0.8 -0.2 0.8 -0.84 c0 -0.44 -0.32 -0.44 -0.64 -0.44 c-0.8 0 -1.76 0.32 -2.4 0.32 c-0.6 0 -1.28 -0.28 -1.72 -0.28 l-3.96 0 l0 0.88 c0.08 -0.04 0.12 -0.04 0.16 -0.04 c0.16 0 0.16 0.2 0.96 0.2 c0.68 0 1.36 -0.16 2 -0.16 c0.32 0 0.64 0.04 0.96 0.12 c0.2 -0.12 1.4 -0.44 2 -0.44 c0.32 0 0.76 0.4 1.16 0.6 z M5.8 24 l0 0.12 c0.24 0 0.4 -0.16 0.56 -0.16 c0.08 0 0.16 0.28 0.36 0.28 c0.28 0 0.28 -0.44 1.2 -0.44 c0.4 0 0.8 0.04 1.2 0.04 c0.48 0 1.52 -0.08 1.52 -0.68 c0 -0.12 -0.12 -0.2 -0.4 -0.2 l-2.52 0 c-0.12 0 -0.24 -0.36 -0.24 -0.36 c-0.24 0.12 -0.2 0.52 -0.48 0.52 c-0.12 0 -0.32 -0.16 -0.56 -0.16 c-0.44 0 -1.64 0.2 -1.6 0.2 c-0.24 0 -0.68 -0.16 -1 -0.16 c-0.24 0 -0.32 0.04 -0.32 0.28 c0 0.44 0.28 0.56 0.64 0.56 c0.28 0 0.6 -0.08 0.92 -0.08 c0.28 0 0.56 0.08 0.72 0.24 z M11.52 23.48 c-0.04 0 -0.08 0.04 -0.08 0.12 c0 0.04 0.04 0.12 0.08 0.12 c0.08 0 0.08 -0.08 0.08 -0.12 c0 -0.08 0 -0.12 -0.08 -0.12 z M33.88 23.6 c0 -0.08 -0.04 -0.08 -0.04 -0.08 c-0.04 0 -0.08 0 -0.08 0.08 c0 0.04 0.04 0.08 0.08 0.08 c0 0 0.04 -0.04 0.04 -0.08 z M25.12 22.96 c0.2 0.04 0.32 0.04 0.4 0.04 c0.24 0 0.28 -0.08 0.6 -0.16 c1.04 -0.12 2.04 -0.12 3.04 -0.12 c0.12 0.16 0.32 0.24 0.52 0.24 c1 0 1.84 -0.24 2.56 -0.24 l0.12 0 c0.12 0 0.64 0.36 0.76 0.36 l0.12 0 c0.04 -0.8 -0.16 -1 -0.36 -1 c-0.24 0 -0.64 0.36 -1.04 0.36 c-0.24 0 -0.76 -0.24 -1 -0.36 l-2.8 0 c-0.12 -0.08 -0.2 -0.12 -0.28 -0.12 c-0.16 0 -0.24 0.12 -0.48 0.12 c-0.12 0 -1.4 -0.12 -1.52 -0.12 c-0.52 0 -1.36 0 -1.36 0.6 c0 0.52 0.36 0.4 0.72 0.4 z M35.52 22.84 c-0.04 0 -0.08 0.04 -0.08 0.12 c0 0.04 0.04 0.12 0.08 0.12 c0.08 0 0.08 -0.08 0.08 -0.12 c0 -0.08 0 -0.12 -0.08 -0.12 z M23.6 22.2 c-0.04 0 -0.08 0.04 -0.08 0.12 c0 0.04 0.04 0.12 0.08 0.12 c0.08 0 0.08 -0.08 0.08 -0.12 c0 -0.08 0 -0.12 -0.08 -0.12 z M5.56 22.08 l4.56 0 c0.52 -0.24 0.28 -1.16 0.64 -1.28 l-0.12 -0.12 l-0.4 0.4 c-0.84 0 -1.72 0.24 -2.6 0.24 c-0.28 0 -0.56 0 -0.92 -0.24 c-0.16 0 -0.52 0.12 -0.64 0.24 c0 -0.2 -0.08 -0.28 -0.16 -0.28 s-0.24 0.08 -0.36 0.16 l-1.52 0 l-0.12 -0.12 l-0.4 0.36 c0.12 0.04 0.16 0.08 0.16 0.12 c0 0.12 -0.16 0.28 -0.16 0.44 c0 0.12 1.72 0.08 2.04 0.08 z M24.36 21.2 c0.16 0.2 0.4 0.12 0.56 0.12 c0.72 0 0.44 -0.28 1.08 -0.52 c-0.32 -0.2 -0.84 -0.44 -1.2 -0.44 c-0.28 0 -0.48 0.16 -0.48 0.52 c0 0.08 0 0.2 0.04 0.32 z M26.76 21.08 l0 0.12 l0.24 -0.12 l-0.24 0 z M27.52 21.08 c0.12 0.04 0.2 0.04 0.28 0.04 c0.32 0 0.64 -0.24 0.96 -0.24 c0.04 0 0.12 0.04 0.16 0.04 l0 -0.36 c-0.64 -0.08 -0.92 -0.16 -1.08 -0.16 c-0.24 0 -0.36 0.08 -1.2 0.16 c0.36 0 0.76 0.32 0.88 0.52 z M29.8 20.92 c0.08 0 0.28 0.28 0.4 0.28 c0.04 0 0.08 -0.04 0.12 -0.12 l1.64 0 c0 0.12 0.16 0.16 0.32 0.16 s0.32 -0.04 0.32 -0.04 c-0.12 -0.28 -0.52 -0.76 -0.76 -0.76 l-1.92 0 c-0.2 0.2 -0.76 0.04 -0.76 0.48 c0 0.08 0 0.16 0.12 0.16 c0.16 0 0.2 -0.2 0.4 -0.2 c0.04 0 0.08 0 0.12 0.04 z M26.12 20.92 c0 0.16 0.12 0.16 0.28 0.16 l0 -0.16 l-0.28 0 z M12.04 20.68 l0.12 0.12 c0 -0.12 0 -0.24 -0.12 -0.24 l0 0.12 z M3.64 19.4 l0 1.28 c0.4 -0.12 0.52 -0.2 0.64 -0.2 c0.16 0 0.2 0.08 0.44 0.08 s0.76 -0.28 1.24 -0.28 c0.2 0 0.4 0.08 0.48 0.28 l1.04 -0.12 c0.12 0 0.24 -0.4 0.24 -0.4 l0.24 0.24 c0.72 0 1.4 0.2 2.12 0.2 c0.2 0 0.48 0.04 0.48 -0.24 c0 -0.44 -0.44 -0.84 -0.44 -1.16 c0 -0.28 0.56 -0.24 0.56 -0.72 c0 -0.88 -0.64 -0.88 -1.32 -0.88 c-1.64 0 -3.28 0.28 -4.92 0.28 l-0.68 0 c0 0.04 -0.04 0.08 -0.04 0.12 c0 0.32 0.2 0.64 0.4 0.64 c0.36 0 0.56 -0.2 0.84 -0.2 c0.48 0 1.08 0.36 1.52 0.36 c0.36 0 0.72 -0.08 1.16 -0.08 c0.12 0 0.28 0 0.44 0.04 c0.04 -0.16 0.24 -0.24 0.48 -0.24 c0.52 0 1.36 0.36 1.44 0.64 c-0.12 0.12 -0.24 0.24 -0.24 0.36 c-0.68 0 -1.84 -0.16 -1.84 0.28 c0 0.04 0 0.08 0.04 0.12 l-0.12 0 c-0.56 0 -0.88 -0.44 -1.36 -0.44 c-0.64 0 -1.24 0.2 -1.88 0.2 c-0.52 0 -0.44 -0.32 -0.76 -0.32 c-0.08 0 -0.12 0.08 -0.2 0.16 z M22.44 19.92 c-0.04 0 -0.08 0.04 -0.08 0.12 c0 0.04 0.04 0.12 0.08 0.12 c0.08 0 0.08 -0.08 0.08 -0.12 c0 -0.08 0 -0.12 -0.08 -0.12 z M28.04 19.52 c0.04 0.08 -0.04 0.28 0.04 0.28 c0.24 0 0.72 -0.52 1.04 -0.52 c0.08 0 0.16 0.04 0.2 0.12 l2 0 c0.24 0.04 0.16 -0.6 0.16 -0.88 l-1 0 c-0.4 0 -0.24 -0.2 -0.4 -0.2 c-0.04 0 -0.12 0 -0.28 0.08 c-0.16 0.04 -0.16 -0.08 -0.16 -0.16 c0 -0.24 0.28 -0.4 0.52 -0.4 c0.2 0 0.36 0.08 0.4 0.28 c0.2 -0.12 0.24 -0.24 0.24 -0.32 c0 -0.36 -0.72 -0.68 -0.72 -1.04 c-0.12 0.12 -0.52 0.16 -1 0.16 c-0.92 0 -2.24 -0.16 -2.56 -0.16 c-0.52 0 -1.12 0.28 -1.6 0.28 c-0.4 0 -0.76 -0.12 -1.16 -0.12 c-0.2 0 -0.6 -0.04 -0.6 0.32 s0.24 0.44 0.48 0.44 c0.36 0 0.76 -0.16 0.96 -0.16 c0.4 0 1.04 0.24 1.4 0.24 c0.68 0 1.36 -0.28 2.04 -0.28 c0.44 0 1.24 0.28 1.4 0.52 c0 0.56 -0.72 0.72 -1.36 0.72 c-1.08 0 -1.2 -0.32 -1.68 -0.32 c-0.72 0.08 -1.4 0.28 -2.08 0.28 c-0.16 0 -0.32 -0.04 -0.48 -0.04 c0 0.24 0.08 0.76 -0.12 0.76 l0.12 0 c0.28 0 0.48 -0.28 0.76 -0.28 c0.8 0 1.36 0.28 2 0.28 c0.36 0 0.72 -0.04 1.16 -0.12 z M11.4 19.4 l0 0.12 l0.12 0 z M11.76 18.4 c-0.04 0 -0.08 0.04 -0.08 0.12 c0 0.04 0.04 0.12 0.08 0.12 c0.08 0 0.12 -0.08 0.12 -0.12 c0 -0.08 -0.04 -0.12 -0.12 -0.12 z M13.04 17.76 c-0.04 0 -0.08 0.04 -0.08 0.12 c0 0.04 0.04 0.12 0.08 0.12 c0.08 0 0.08 -0.08 0.08 -0.12 c0 -0.08 0 -0.12 -0.08 -0.12 z M13.44 17.76 c-0.04 0 -0.08 0.04 -0.08 0.12 c0 0.04 0.04 0.12 0.08 0.12 c0.08 0 0.08 -0.08 0.08 -0.12 c0 -0.08 0 -0.12 -0.08 -0.12 z M11 17.24 c-0.04 0 -0.08 0.08 -0.08 0.12 c0 0.08 0.04 0.16 0.08 0.16 c0.08 0 0.12 -0.08 0.12 -0.16 c0 -0.04 -0.04 -0.12 -0.12 -0.12 z M6.2 16.76 c0.24 0 0.28 0.12 0.4 0.12 c0.04 0 0.12 -0.04 0.24 -0.12 l2.64 0 c0.24 0.08 0.44 0.12 0.6 0.12 c0.52 0 0.68 -0.36 0.68 -0.72 c0 -0.32 -0.16 -0.68 -0.32 -0.68 c-0.76 0 -1.6 0.4 -2.36 0.4 c-0.16 0 -0.28 -0.12 -0.4 -0.12 c-0.16 0 -0.28 0.28 -0.76 0.28 c-1.04 0 -2.04 -0.2 -2.88 -0.2 l0 0.52 c-0.16 0 -0.32 0.04 -0.4 -0.12 c-0.08 0 -0.12 0 -0.12 0.04 c0 0.16 0.52 0.48 0.52 0.48 c0.08 0 0.16 0.04 0.2 0.04 c0.16 0 -0.12 -0.2 0.32 -0.2 c0.36 0 1.24 0.16 1.64 0.16 z M3.16 16.48 c-0.08 0 -0.12 0.08 -0.12 0.12 c0 0.08 0.04 0.16 0.12 0.16 s0.08 -0.08 0.08 -0.16 c0 -0.04 0 -0.12 -0.08 -0.12 z M22.56 15.84 l0.16 0.16 l1.64 0 c0.12 -0.16 0.4 -0.2 0.72 -0.2 c0.56 0 1.28 0.16 1.72 0.16 c0.2 0 0.32 -0.04 0.36 -0.12 c0.08 0 0.8 0.12 1.28 0.12 c0.24 0 0.44 -0.04 0.48 -0.12 c-0.4 -0.56 -0.88 -0.64 -1.4 -0.64 c-0.28 0 -0.6 0.04 -0.92 0.04 c-0.4 0 -0.76 -0.08 -0.76 -0.16 c0 -0.04 0.08 -0.04 0.04 -0.04 c-0.32 0 -0.92 0.2 -1.28 0.2 c-0.28 0 -0.64 -0.04 -0.88 -0.28 c-0.4 0 -1 0.12 -1.4 0.24 c-0.16 0.12 0.24 0.4 0.24 0.64 z M13.04 15.48 c-0.04 0 -0.08 0.04 -0.08 0.12 c0 0.04 0.04 0.12 0.08 0.12 c0.08 0 0.08 -0.08 0.08 -0.12 c0 -0.08 0 -0.12 -0.08 -0.12 z M5.16 14.84 l0.52 0.24 c0.08 0 0.68 -0.48 1 -0.48 c0.08 0 0.16 0.08 0.16 0.24 l1.88 0 c0.12 0.12 1.8 0.12 1.92 0.12 c-0.04 -0.16 -0.04 -0.32 -0.04 -0.44 c0 -1.76 1.76 -1.4 2.32 -1.96 l1.52 0 l0.12 -0.12 c-0.28 -0.44 -0.6 -0.52 -0.96 -0.52 c-0.16 0 -0.36 0.04 -0.52 0.04 c-0.36 0 -1.28 -0.32 -1.68 -0.32 c-0.68 0 -1.4 0.28 -1.96 0.28 l-0.84 0 c-0.24 0 -1.88 0.36 -2.04 0.64 c0 -0.12 -0.24 -0.4 -0.36 -0.4 c-0.24 0.12 -0.56 0.2 -0.64 0.28 c-0.2 0 -0.32 -0.2 -0.52 -0.2 c-0.16 0 -0.32 0.36 -0.56 0.36 c-0.08 0 -0.16 -0.04 -0.2 -0.16 c-0.12 0.08 -0.12 0.2 -0.12 0.28 c0 0.36 0.36 0.44 0.76 0.44 c0.76 0 0.92 -0.08 1.16 -0.24 l1.76 0 c0.08 0.08 0.12 0.12 0.16 0.12 c0.16 0 0.28 -0.28 0.44 -0.28 c0.24 0 0.4 0.2 0.56 0.2 c0.28 0 0.36 -0.2 0.44 -0.2 c0.4 0 1.16 0.12 1.16 0.56 c0 0.64 -1.52 0.64 -2.28 0.64 l-1.12 0 c-0.12 0 -0.12 0.12 -0.12 0.24 l-0.52 0 l0.28 -0.12 c-0.04 0 -0.08 -0.04 -0.12 -0.04 c-0.24 0 -0.48 0.2 -0.72 0.2 c-0.12 0 -0.24 -0.08 -0.32 -0.28 l-1 0 c0 0.44 -0.76 0.28 -0.76 0.84 l0 0.16 c0.28 0 0.68 -0.16 1 -0.16 c0.08 0 0.16 0 0.24 0.04 z M23.96 14.719999999999999 c-0.04 0 -0.08 0.04 -0.08 0.12 c0 0.04 0.04 0.12 0.08 0.12 c0.08 0 0.08 -0.08 0.08 -0.12 c0 -0.08 0 -0.12 -0.08 -0.12 z M20.68 13.84 l0.76 0.76 c0.2 0.12 0.64 -0.44 0.64 -0.6 c0 -0.44 -1.12 -0.44 -1.4 -0.44 l0 0.28 z M29.56 14.440000000000001 c-0.04 0 -0.08 0.08 -0.08 0.12 c0 0.08 0.04 0.16 0.08 0.16 c0.08 0 0.08 -0.08 0.08 -0.16 c0 -0.04 0 -0.12 -0.08 -0.12 z M24.48 14.32 l0.24 0.12 c0.52 0 1.32 0.12 1.32 -0.32 c0 -0.16 -1.84 -0.48 -2.2 -1.2 c-0.32 0.96 -1.56 0.28 -1.56 1.04 c0 0.4 0.76 0.4 1.16 0.4 s0.8 -0.04 1.04 -0.04 z M12.28 13.440000000000001 c0 0.12 0.28 0.64 0.28 0.76 l0 0.12 c0.08 -0.08 0.2 -0.4 0.2 -0.64 c0 -0.2 -0.08 -0.32 -0.24 -0.32 c-0.04 0 -0.12 0.04 -0.24 0.08 z M4.4 14.079999999999998 c0 -0.08 -0.04 -0.08 -0.04 -0.08 c-0.04 0 -0.08 0 -0.08 0.08 c0 0.04 0.04 0.08 0.08 0.08 c0 0 0.04 -0.04 0.04 -0.08 z M6.08 13.96 c-0.08 0 -0.12 0.04 -0.12 0.12 c0 0.04 0.04 0.12 0.12 0.12 s0.08 -0.08 0.08 -0.12 c0 -0.08 0 -0.12 -0.08 -0.12 z M29.44 13.96 l0.12 0.12 l0 -0.12 l-0.12 0 z M29.92 13.68 l0 0.16 l0.16 0 l0 -0.16 l-0.16 0 z M18.76 12.920000000000002 c0.04 0.04 0.12 0.08 0.28 0.08 c0.44 0 2.44 -0.48 2.44 -0.56 s-0.12 -0.16 -0.2 -0.16 s-0.2 0.04 -0.24 0.16 c-0.2 -0.2 -0.36 -0.28 -0.48 -0.28 c-0.28 0 -0.48 0.28 -0.72 0.28 c-0.04 0 -1.08 -0.52 -1.72 -0.52 c-0.28 0 -0.52 0.08 -0.52 0.4 c0 0.08 0.04 0.16 0.04 0.24 c0.04 -0.04 0.12 -0.04 0.16 -0.04 c0.24 0 0.92 0.12 0.96 0.4 z M15.72 12.280000000000001 c0.28 0.24 0.44 0.32 0.56 0.32 c0.08 0 0.12 -0.04 0.12 -0.12 c0 -0.2 -0.12 -0.48 -0.32 -0.68 c-0.04 0.04 -0.12 0.08 -0.24 0.08 c-0.2 0 -0.44 -0.12 -0.56 -0.12 s-0.16 0.32 -0.28 0.32 c-0.04 0 -0.08 -0.04 -0.16 -0.04 c-0.04 0 -0.08 0.04 -0.12 0.12 c0.12 0.16 0.2 0.2 0.28 0.2 c0.16 0 0.2 -0.24 0.4 -0.24 c0.08 0 0.2 0.04 0.32 0.16 z M16.72 12.16 c0.08 0.08 0.24 0.16 0.4 0.16 c0.08 0 0.2 -0.04 0.24 -0.16 c0 -0.12 -0.16 -0.2 -0.32 -0.2 s-0.32 0.08 -0.32 0.2 z M53.58800000000001 39.48 c-0.16 -0.08 -1.16 -0.2 -1.92 -0.2 c-0.48 0 -0.76 0.04 -0.76 0.2 l-0.24 -0.28 s-2.04 0.28 -3.24 0.28 c-3.08 0 0.6 -0.28 -6.4 -0.28 c-0.12 0 -1.04 0.28 -1.28 0.28 l-0.36 -0.12 c-0.72 0 -1.64 0 -1.6 0 c-1.28 0 -1.68 -0.56 -1.68 -1.24 c0 -0.96 0.76 -2.08 0.84 -2.08 l0 -1.52 c0 -0.48 0.48 -1 0.28 -1.28 c-0.16 -0.64 0.12 -2.52 -0.4 -2.8 l0 -0.36 c0 -0.76 0.24 -1.4 0.24 -2.04 c0 -0.6 -0.28 -1.16 -0.28 -1.44 c0 -0.2 0.2 -0.24 0.28 -0.48 c0 -0.12 -0.04 -0.24 -0.04 -0.36 c0 -0.32 0.2 -0.48 0.2 -0.88 c0 -0.24 -0.24 -1.32 -0.24 -1.84 c0 -0.16 0.04 -0.28 0.08 -0.32 l0 -1.52 l-0.12 -0.12 c0.28 -0.28 0.36 -0.72 0.36 -1.12 s-0.48 -1.36 -0.48 -1.8 c0 -1.12 0.44 -1.68 0.44 -2.52 c0 -1 -0.64 -1.92 -0.96 -2.84 c0.2 -1.56 1.12 -1.8 2.2 -1.8 c0.44 0 0.96 0.04 1.44 0.04 c0.56 0 1.12 -0.04 1.6 -0.28 c0.36 0.04 0.72 0.04 1.08 0.04 c2.6 0 6.28 -0.68 7.8 -0.4 l0.24 0.12 c0.88 0 2.04 0 2.92 0.12 c1.16 0.28 2.4 0.12 3.56 0.52 c0.04 -0.2 0.16 -0.28 0.28 -0.28 c0.36 0 0.92 0.52 1 0.52 c0.48 0.08 1.52 0.16 2.16 0.28 c1 0.2 1.44 1 2.52 1 c-0.28 0 2.16 0.4 2.16 1.28 c0.28 0.64 1.8 1.12 2.16 1.88 c0.12 0.24 1.04 1.04 1.44 1.04 l0.08 0 s-0.12 0.24 -0.12 0.36 s0.76 0.64 0.88 0.76 c0.16 1.48 0.92 1.56 1.4 2.8 c0.28 0.64 0.28 1.36 0.28 2.16 c0.12 0.76 0.24 1.4 0.24 2.28 c-0.12 0.08 -0.16 0.12 -0.16 0.16 c0 0.12 0.28 0.16 0.28 0.32 c0 0 -0.04 0.12 -0.12 0.16 c-0.2 0.08 -0.08 1.92 -0.24 2.92 c-0.24 0.64 -0.68 1.24 -0.68 1.96 c0 0.08 0.04 0.2 0.04 0.32 c-0.68 0.28 -0.52 0.48 -0.92 1.16 c-1.2 0.88 -1.24 1.8 -2.64 2.8 c-0.12 0.04 -0.12 0.16 -0.12 0.24 c0 0.76 -2.36 1.2 -2.92 2.16 l-1.68 0.4 c-0.24 0.48 -4.44 1 -4.56 1.36 l-3.04 0 c-0.4 0 -0.64 0.32 -1 0.32 c-0.08 0 -0.16 0 -0.28 -0.04 z M43.948 37.96 l0.12 0.12 c0.52 -0.24 1.6 -0.56 1.68 -0.56 s0.16 0.04 0.16 0.08 s-0.04 0.12 -0.2 0.24 c0.24 -0.12 0.6 -0.28 0.64 -0.28 c0.48 0 1.4 0.36 1.88 0.36 c0.16 0 0.24 0 0.28 -0.08 c0.96 -0.12 2.2 -0.32 3.32 -0.32 c0.88 0 1.12 0.44 1.4 0.44 c0.36 -0.12 1.88 -0.64 1.88 -0.76 l0 -0.12 c-0.28 0 -0.8 -0.56 -1.08 -0.56 c-0.4 0 -0.76 0.6 -1.16 0.6 c-0.08 0 -0.16 -0.08 -0.28 -0.04 l0 0.24 c-0.04 0.04 -0.24 -0.08 -0.4 -0.12 c-0.68 0 -1.96 -0.04 -2.52 0.36 c-0.64 0 -1.4 -0.36 -2.04 -0.36 c-0.28 0 -0.8 0.12 -1.24 0.12 c-0.2 0 -0.44 -0.04 -0.56 -0.12 c-1.32 0 -2.92 -0.08 -4.04 0.12 l-0.24 -0.12 l-1.68 0 c-0.12 0 -0.88 -0.28 -1 -0.28 l-0.12 0 l0 0.92 c0.12 0 0.36 0 0.36 -0.16 c0.84 0.24 1.8 0.36 2.72 0.36 c0.48 0 0.96 -0.04 1.36 -0.08 c0.04 -0.2 0.12 -0.28 0.24 -0.28 c0.16 0 0.36 0.2 0.52 0.28 z M55.508 37.32 c0.08 0.08 0.2 0.12 0.28 0.12 c0.12 0 0.28 -0.08 0.36 -0.24 c-0.16 -0.08 -0.32 -0.16 -0.44 -0.16 c-0.08 0 -0.24 0.08 -0.2 0.28 z M56.388000000000005 36.92 c-0.04 0 -0.08 0.08 -0.08 0.12 c0 0.08 0.04 0.16 0.08 0.16 c0.08 0 0.08 -0.08 0.08 -0.16 c0 -0.04 0 -0.12 -0.08 -0.12 z M57.668000000000006 36.8 c-0.08 0.16 0.32 0.12 0.64 0.12 c0.4 0 0.84 -0.04 1 -0.36 l1.76 -0.4 c0 -0.36 0.4 -0.24 0.52 -0.48 l1.64 -0.76 c0.16 0 0.16 -0.8 0.16 -0.92 l-5.36 0 c-0.16 -0.08 -0.28 -0.12 -0.4 -0.12 c-0.44 0 -0.6 0.4 -0.6 0.64 c0 0.16 0.04 0.24 0.12 0.24 l1 0 c0 -0.16 0.2 -0.24 0.44 -0.24 c0.28 0 0.6 0.12 0.72 0.24 l2.68 0 c0.08 0.04 0.12 0.2 0.12 0.2 c0 0.68 -4.64 0.72 -5.08 0.72 c-0.2 -0.12 -0.48 -0.4 -0.52 -0.28 l0 -0.36 l-0.04 0 c-0.28 0 -1.2 0.6 -1.2 0.96 c0 0.08 0.04 0.12 0.12 0.16 c0.64 0 1.52 -0.12 1.52 -0.12 c0.12 0 0.76 0.4 0.88 0.4 c0.04 0.08 -0.04 0.24 -0.12 0.36 z M38.108000000000004 36.56 c-0.04 0 -0.08 0.04 -0.08 0.04 c0 0.04 0.04 0.08 0.08 0.08 c0.08 0 0.08 -0.04 0.08 -0.08 c0 0 0 -0.04 -0.08 -0.04 z M38.588 36.44 l0.16 0.12 l0.48 -0.4 l3.68 0 c0.16 -0.12 0.4 -0.16 0.64 -0.16 c0.44 0 0.96 0.16 1.4 0.16 c0.28 -0.2 0.4 -0.36 0.4 -0.48 c0 -0.2 -0.36 -0.24 -0.8 -0.24 c-0.88 0 -1.6 0.28 -1.72 0.28 c-0.48 0 -0.88 -0.56 -1.12 -0.56 s-0.36 0.4 -0.64 0.4 c-0.36 0 -1.6 -0.28 -2.48 -0.28 l0 1.16 z M48.388000000000005 36.04 c0.28 0.08 0.6 0.12 0.92 0.12 c0.44 0 0.88 -0.04 1.24 -0.12 c0.2 0.08 0.36 0.08 0.56 0.08 c0.76 0 1.56 -0.48 2.08 -0.48 c0.04 0 0.12 0.04 0.16 0.04 c2.52 -1.68 3.8 -2.92 4.32 -6 c0.04 -0.24 0.08 -0.4 0.08 -0.56 c0 -0.36 -0.2 -0.6 -0.2 -0.68 c0.48 -0.96 0.64 -1.48 0.64 -2.12 c0 -0.4 -0.16 -0.88 -0.16 -1.6 c0 -0.4 0.32 -0.92 0.32 -1.36 c0 -0.68 -0.56 -0.76 -0.56 -1.68 c0 -0.2 0.16 -0.24 0.16 -0.36 c0 -0.48 -0.88 -0.92 -0.88 -1.48 c0 -0.24 0.24 -0.4 0.24 -0.6 c0 -0.4 -0.28 -1.24 -0.4 -1.24 c0.08 -0.04 0.12 -0.12 0.12 -0.16 c0 -0.12 -0.08 -0.2 -0.28 -0.2 c-0.24 -0.88 -0.6 -1.4 -1.12 -1.92 c-0.24 -0.24 -0.4 -0.12 -0.76 -0.52 c-0.28 -0.24 -0.4 -0.6 -0.76 -0.76 c-0.4 -0.12 -0.88 0 -1.16 -0.24 c-0.24 -0.24 -0.12 -0.36 -0.48 -0.52 c-0.88 0 -3.2 -0.12 -3.2 -0.12 l-0.24 0.64 l-0.4 -0.24 c-0.2 0.44 -0.24 0.96 -0.24 1.48 l0 1.04 l-0.24 0.12 c0.2 0.32 0.28 0.64 0.28 1 c0 0.64 -0.44 1.28 -0.44 1.88 c0 0.16 0.2 0.24 0.2 0.52 c0 0.04 0 0.08 -0.04 0.16 c0 1.08 0.28 1.96 0.28 2.92 c0 0.2 0 0.36 -0.04 0.52 l-0.24 0 c-0.04 0.08 -0.04 0.24 -0.04 0.4 c0 0.88 0.32 2.44 0.52 2.76 c-0.24 0 -0.28 0.28 -0.28 0.8 c0 0.68 0.12 1.56 0.12 2.08 c0 0.68 -0.56 0.56 -0.6 0.8 c0.16 0.16 0.36 1.36 0.36 2.24 c0 0.56 -0.08 1 -0.28 1 c0 0 -0.04 -0.04 -0.08 -0.04 c0 0.12 0.12 0.36 0.28 0.48 c0 0.28 -0.04 0.52 -0.04 0.72 c0 0.24 0.04 0.48 0.28 0.68 c0 0.12 -0.12 0.24 -0.12 0.36 c0 0.08 0.04 0.12 0.12 0.16 z M56.628 34.519999999999996 c-0.04 0 -0.08 0.04 -0.08 0.12 c0 0.04 0.04 0.12 0.08 0.12 c0.08 0 0.08 -0.08 0.08 -0.12 c0 -0.08 0 -0.12 -0.08 -0.12 z M40.388000000000005 34.28 c0.36 0 1 0.24 1.12 0.24 s0.28 -0.04 0.28 -0.24 c0.44 0 1.32 0.2 2.12 0.2 c0.64 0 1.36 -0.16 1.36 -0.76 c0 0 -0.16 -0.24 -0.4 -0.24 c-0.12 0 -0.12 0.16 -0.28 0.16 l-0.12 0 l0 -0.12 c-0.24 0 -0.52 -0.2 -0.68 -0.2 c-0.24 0 -0.12 0.48 -0.44 0.48 c-0.4 0 -1.04 -0.44 -1.04 -0.44 c-0.08 0.04 -0.2 0.04 -0.32 0.04 c-0.2 0 -0.4 -0.04 -0.56 -0.04 c-0.24 0 -0.4 0.04 -0.52 0.28 c-0.52 0.24 -1.68 0.24 -2.16 0.48 l0.12 0.16 l1.52 0 z M68.06800000000001 34.12 c-0.04 0 -0.08 0.04 -0.08 0.08 s0.04 0.08 0.08 0.08 c0.08 0 0.08 -0.04 0.08 -0.08 s0 -0.08 -0.08 -0.08 z M57.548 33.36 l0 0.16 c0.44 -0.56 1.44 -0.4 2.4 -0.4 c0.16 0.24 1.48 0.08 1.52 0.12 l0.12 -0.12 c1.04 0 2 0.04 2.72 0.04 c0.2 0 0.4 0 0.6 -0.04 c0 -0.12 2 -1.76 2.16 -1.92 l0 -0.28 c0 -0.92 0.64 -1.24 0.64 -1.84 c0 -0.04 -0.04 -0.12 -0.04 -0.16 c-0.08 0.04 -0.16 0.04 -0.24 0.04 c-0.36 0 -0.68 -0.28 -1 -0.28 c-0.56 0 -2.04 0.28 -3 0.28 c-0.4 0 -0.68 -0.04 -0.84 -0.16 l-3.04 0 c-0.16 0.04 -0.4 0.44 -0.4 0.6 c0 0.28 0.36 0.4 0.72 0.4 c0.2 0 0.36 -0.04 0.44 -0.12 l3.44 0 c0.12 -0.12 0.28 -0.16 0.44 -0.16 c0.44 0 2.8 0.04 2.8 0.68 c0 0.24 -1.36 0.4 -2.24 0.4 l-3.28 0 c-0.12 -0.08 -0.24 -0.12 -0.32 -0.12 c-0.2 0 -1.36 0.12 -2.08 0.12 c-0.16 0 -1.04 1.4 -1.28 1.64 c0 0.12 -0.24 1 -0.24 1.12 z M67.548 33.12 c-0.04 0 -0.08 0.04 -0.08 0.12 c0 0.04 0.04 0.12 0.08 0.12 c0.08 0 0.08 -0.08 0.08 -0.12 c0 -0.08 0 -0.12 -0.08 -0.12 z M45.828 32.88 l0 -0.04 c-0.04 0 -0.16 0.08 -0.16 0.12 s0.04 0.04 0.04 0.04 c0.12 0 0.12 0 0.12 -0.12 z M40.508 32.480000000000004 c0.2 0.16 0.36 0.2 0.56 0.2 c0.36 0 0.72 -0.24 1.16 -0.24 c0.16 0 0.36 0.08 0.52 0.08 c0.32 0 0.68 -0.08 1 -0.08 c0.2 0 0.52 0.08 0.84 0.32 l0.08 0 c0.28 0 0.6 -0.52 0.6 -0.88 c0 -0.08 -0.04 -0.12 -0.04 -0.16 c-0.64 0 -1.48 0.12 -1.48 0.12 c-0.04 0 -0.12 -0.04 -0.2 -0.12 c-1.2 0 -2.88 -0.04 -3.4 0.12 l-0.16 0.16 c-0.04 -0.08 -0.8 -0.12 -1 -0.28 c-0.24 0 -0.52 -0.12 -0.52 0.24 c0 0.44 0.24 0.52 0.6 0.52 s0.76 -0.08 1.08 -0.08 c0.16 0 0.28 0 0.36 0.08 z M58.548 32 l0 -0.08 c0 -0.64 1.56 -0.44 2.28 -0.44 l0.12 -0.12 c0.96 -0.12 2.56 0.24 3.8 0.24 c0.16 0 0.52 -0.12 0.64 -0.12 c0.28 0 0.4 0.12 0.4 0.24 c0 0.88 -5.12 0.64 -6.88 0.64 c-0.12 0 -0.36 -0.24 -0.36 -0.36 z M67.428 31.84 l0.4 0.4 c0 -0.2 -0.08 -0.52 -0.24 -0.52 c-0.04 0 -0.08 0.04 -0.16 0.12 z M42.668000000000006 30.84 c0.52 0 1.36 0.16 2 0.16 c0.16 0 0.28 -0.04 0.4 -0.04 l0 -0.08 c0 -0.16 0.28 -0.56 0.28 -0.76 c0 -0.08 -0.08 -0.16 -0.28 -0.16 l-1.52 0 c-0.2 -0.16 -0.48 -0.24 -0.76 -0.24 c-0.76 0 -1.68 0.4 -2.44 0.4 c-0.28 0 -0.4 -0.16 -1.24 -0.16 c-0.12 0 -0.64 0.2 -0.64 0.4 c0 0.4 1.72 0.48 2.16 0.48 s0.92 -0.04 1.36 -0.04 c0.24 0 0.48 0 0.68 0.04 z M38.588 30.84 c0 -0.08 -0.04 -0.08 -0.04 -0.08 c-0.04 0 -0.08 0 -0.08 0.08 c0 0.04 0.04 0.08 0.08 0.08 c0 0 0.04 -0.04 0.04 -0.08 z M67.548 30.72 c-0.04 0 -0.08 0.04 -0.08 0.04 c0 0.04 0.04 0.08 0.08 0.08 c0.08 0 0.08 -0.04 0.08 -0.08 c0 0 0 -0.04 -0.08 -0.04 z M47.868 29.84 c-0.04 0 -0.08 0.04 -0.08 0.04 c0 0.04 0.04 0.08 0.08 0.08 c0.08 0 0.08 -0.04 0.08 -0.08 c0 0 0 -0.04 -0.08 -0.04 z M43.948 29.2 l0.52 0.24 c0.48 -0.48 0.88 -0.52 0.88 -2 c0 -0.44 -0.12 -1.08 -0.48 -1.08 c-0.16 0 -0.28 0.16 -0.44 0.16 l-0.12 0 l0 -0.12 c-0.24 0.2 -0.48 0.28 -0.76 0.28 c-0.52 0 -1.08 -0.32 -1.52 -0.32 c-0.12 0 -0.6 0.12 -0.76 0.16 l-0.76 0 c-0.76 0 -1.8 0.04 -1.8 0.4 c0 0.28 0.64 0.64 1.12 0.64 c0.16 0 0.32 -0.04 0.44 -0.16 l1.4 0 c0.08 0.08 0.28 0.12 0.52 0.12 c0.4 0 0.96 -0.08 1.52 -0.08 c0.4 0 1.28 0.08 1.28 0.44 c0 0.48 -0.72 0.56 -0.8 0.56 c-0.24 0 -0.28 -0.16 -0.64 -0.16 c-1.56 0 -4.88 0 -4.88 0.48 c0 0.16 0.08 0.32 0.2 0.32 c0.32 -0.04 0.6 -0.04 0.88 -0.04 c1.2 0 2.28 0.16 3.48 0.16 l0.72 0 z M59.428000000000004 28.560000000000002 c-0.04 0 -0.08 0.04 -0.08 0.12 c0 0.04 0.04 0.12 0.08 0.12 c0.08 0 0.08 -0.08 0.08 -0.12 c0 -0.08 0 -0.12 -0.08 -0.12 z M67.30799999999999 28.04 l0.52 0.24 l0.12 0 l0 -0.88 l-0.12 -0.12 c-0.44 -0.12 -3.36 0.12 -4.2 0.12 c-0.96 -0.16 -2.08 -0.28 -3.12 -0.28 c-0.44 0 -1.12 -0.12 -1.12 0.32 c0 0.28 0.12 0.52 0.28 0.72 c1.16 0 2.12 -0.36 3.2 -0.36 c0.24 0 0.48 0.08 0.64 0.24 c0.76 0 1.4 -0.16 2.2 -0.16 c0.12 0 1.24 0.16 1.6 0.16 z M67.828 26.4 l0.24 0.12 c0.08 0.12 0.28 -0.4 0.28 -0.56 c0 -0.36 -0.68 -0.52 -0.76 -0.52 c-0.52 0 -1.04 0.52 -1.56 0.68 c0.08 -0.04 0.2 -0.04 0.28 -0.04 c0.48 0 1.08 0.2 1.52 0.32 z M60.94800000000001 26.28 c0.04 0.04 0.08 0.08 0.2 0.08 c0.24 0 0.76 -0.16 1.16 -0.16 c0.16 0 0.32 0 0.44 0.08 l2.52 0 c0.28 0 0.4 -0.08 0.4 -0.2 c0 -0.24 -0.48 -0.6 -1.32 -0.6 c-0.12 0 -0.24 0.04 -0.36 0.04 c0 -0.04 -0.12 -0.04 -0.32 -0.04 c-0.52 0 -1.52 0.08 -2.12 0.08 c-0.4 0 -0.64 -0.2 -1.72 -0.2 c-0.2 -0.08 -0.44 0.48 -0.44 0.76 c0 0.04 0.04 0.12 0.04 0.16 l1.52 0 z M64.388 26.28 c-0.04 0 -0.08 0.04 -0.08 0.12 c0 0.04 0.04 0.12 0.08 0.12 c0.08 0 0.08 -0.08 0.08 -0.12 c0 -0.08 0 -0.12 -0.08 -0.12 z M41.388000000000005 25.880000000000003 c0.2 0.08 0.36 0.08 0.52 0.08 c0.44 0 0.8 -0.24 1.48 -0.24 c0.6 0 1.24 0.16 1.84 0.16 c0 -0.4 0.04 -0.88 -0.16 -1 l-1.4 0 c-0.04 0.04 -0.16 0.04 -0.28 0.04 c-0.52 0 -1.52 -0.24 -2.28 -0.24 c-0.52 0 -1.08 0.48 -1.12 0.44 c0.52 0.16 -1.4 -0.56 -1.52 -0.36 l0 0.88 c0.08 -0.08 0.16 -0.08 0.28 -0.08 c0.08 0 0.2 0 0.24 0.08 l1.64 0 c0.28 0.12 0.52 0.12 0.76 0.24 z M66.908 24.759999999999998 c0.08 0.04 0.36 0.08 0.68 0.08 c0.72 0 0.8 -0.2 0.8 -0.84 c0 -0.44 -0.32 -0.44 -0.64 -0.44 c-0.8 0 -1.76 0.32 -2.4 0.32 c-0.6 0 -1.28 -0.28 -1.72 -0.28 l-3.96 0 l0 0.88 c0.08 -0.04 0.12 -0.04 0.16 -0.04 c0.16 0 0.16 0.2 0.96 0.2 c0.68 0 1.36 -0.16 2 -0.16 c0.32 0 0.64 0.04 0.96 0.12 c0.2 -0.12 1.4 -0.44 2 -0.44 c0.32 0 0.76 0.4 1.16 0.6 z M40.628 24 l0 0.12 c0.24 0 0.4 -0.16 0.56 -0.16 c0.08 0 0.16 0.28 0.36 0.28 c0.28 0 0.28 -0.44 1.2 -0.44 c0.4 0 0.8 0.04 1.2 0.04 c0.48 0 1.52 -0.08 1.52 -0.68 c0 -0.12 -0.12 -0.2 -0.4 -0.2 l-2.52 0 c-0.12 0 -0.24 -0.36 -0.24 -0.36 c-0.24 0.12 -0.2 0.52 -0.48 0.52 c-0.12 0 -0.32 -0.16 -0.56 -0.16 c-0.44 0 -1.64 0.2 -1.6 0.2 c-0.24 0 -0.68 -0.16 -1 -0.16 c-0.24 0 -0.32 0.04 -0.32 0.28 c0 0.44 0.28 0.56 0.64 0.56 c0.28 0 0.6 -0.08 0.92 -0.08 c0.28 0 0.56 0.08 0.72 0.24 z M46.348 23.48 c-0.04 0 -0.08 0.04 -0.08 0.12 c0 0.04 0.04 0.12 0.08 0.12 c0.08 0 0.08 -0.08 0.08 -0.12 c0 -0.08 0 -0.12 -0.08 -0.12 z M68.708 23.6 c0 -0.08 -0.04 -0.08 -0.04 -0.08 c-0.04 0 -0.08 0 -0.08 0.08 c0 0.04 0.04 0.08 0.08 0.08 c0 0 0.04 -0.04 0.04 -0.08 z M59.94800000000001 22.96 c0.2 0.04 0.32 0.04 0.4 0.04 c0.24 0 0.28 -0.08 0.6 -0.16 c1.04 -0.12 2.04 -0.12 3.04 -0.12 c0.12 0.16 0.32 0.24 0.52 0.24 c1 0 1.84 -0.24 2.56 -0.24 l0.12 0 c0.12 0 0.64 0.36 0.76 0.36 l0.12 0 c0.04 -0.8 -0.16 -1 -0.36 -1 c-0.24 0 -0.64 0.36 -1.04 0.36 c-0.24 0 -0.76 -0.24 -1 -0.36 l-2.8 0 c-0.12 -0.08 -0.2 -0.12 -0.28 -0.12 c-0.16 0 -0.24 0.12 -0.48 0.12 c-0.12 0 -1.4 -0.12 -1.52 -0.12 c-0.52 0 -1.36 0 -1.36 0.6 c0 0.52 0.36 0.4 0.72 0.4 z M70.34800000000001 22.84 c-0.04 0 -0.08 0.04 -0.08 0.12 c0 0.04 0.04 0.12 0.08 0.12 c0.08 0 0.08 -0.08 0.08 -0.12 c0 -0.08 0 -0.12 -0.08 -0.12 z M58.428000000000004 22.2 c-0.04 0 -0.08 0.04 -0.08 0.12 c0 0.04 0.04 0.12 0.08 0.12 c0.08 0 0.08 -0.08 0.08 -0.12 c0 -0.08 0 -0.12 -0.08 -0.12 z M40.388000000000005 22.08 l4.56 0 c0.52 -0.24 0.28 -1.16 0.64 -1.28 l-0.12 -0.12 l-0.4 0.4 c-0.84 0 -1.72 0.24 -2.6 0.24 c-0.28 0 -0.56 0 -0.92 -0.24 c-0.16 0 -0.52 0.12 -0.64 0.24 c0 -0.2 -0.08 -0.28 -0.16 -0.28 s-0.24 0.08 -0.36 0.16 l-1.52 0 l-0.12 -0.12 l-0.4 0.36 c0.12 0.04 0.16 0.08 0.16 0.12 c0 0.12 -0.16 0.28 -0.16 0.44 c0 0.12 1.72 0.08 2.04 0.08 z M59.188 21.2 c0.16 0.2 0.4 0.12 0.56 0.12 c0.72 0 0.44 -0.28 1.08 -0.52 c-0.32 -0.2 -0.84 -0.44 -1.2 -0.44 c-0.28 0 -0.48 0.16 -0.48 0.52 c0 0.08 0 0.2 0.04 0.32 z M61.58800000000001 21.08 l0 0.12 l0.24 -0.12 l-0.24 0 z M62.348 21.08 c0.12 0.04 0.2 0.04 0.28 0.04 c0.32 0 0.64 -0.24 0.96 -0.24 c0.04 0 0.12 0.04 0.16 0.04 l0 -0.36 c-0.64 -0.08 -0.92 -0.16 -1.08 -0.16 c-0.24 0 -0.36 0.08 -1.2 0.16 c0.36 0 0.76 0.32 0.88 0.52 z M64.628 20.92 c0.08 0 0.28 0.28 0.4 0.28 c0.04 0 0.08 -0.04 0.12 -0.12 l1.64 0 c0 0.12 0.16 0.16 0.32 0.16 s0.32 -0.04 0.32 -0.04 c-0.12 -0.28 -0.52 -0.76 -0.76 -0.76 l-1.92 0 c-0.2 0.2 -0.76 0.04 -0.76 0.48 c0 0.08 0 0.16 0.12 0.16 c0.16 0 0.2 -0.2 0.4 -0.2 c0.04 0 0.08 0 0.12 0.04 z M60.94800000000001 20.92 c0 0.16 0.12 0.16 0.28 0.16 l0 -0.16 l-0.28 0 z M46.868 20.68 l0.12 0.12 c0 -0.12 0 -0.24 -0.12 -0.24 l0 0.12 z M38.468 19.4 l0 1.28 c0.4 -0.12 0.52 -0.2 0.64 -0.2 c0.16 0 0.2 0.08 0.44 0.08 s0.76 -0.28 1.24 -0.28 c0.2 0 0.4 0.08 0.48 0.28 l1.04 -0.12 c0.12 0 0.24 -0.4 0.24 -0.4 l0.24 0.24 c0.72 0 1.4 0.2 2.12 0.2 c0.2 0 0.48 0.04 0.48 -0.24 c0 -0.44 -0.44 -0.84 -0.44 -1.16 c0 -0.28 0.56 -0.24 0.56 -0.72 c0 -0.88 -0.64 -0.88 -1.32 -0.88 c-1.64 0 -3.28 0.28 -4.92 0.28 l-0.68 0 c0 0.04 -0.04 0.08 -0.04 0.12 c0 0.32 0.2 0.64 0.4 0.64 c0.36 0 0.56 -0.2 0.84 -0.2 c0.48 0 1.08 0.36 1.52 0.36 c0.36 0 0.72 -0.08 1.16 -0.08 c0.12 0 0.28 0 0.44 0.04 c0.04 -0.16 0.24 -0.24 0.48 -0.24 c0.52 0 1.36 0.36 1.44 0.64 c-0.12 0.12 -0.24 0.24 -0.24 0.36 c-0.68 0 -1.84 -0.16 -1.84 0.28 c0 0.04 0 0.08 0.04 0.12 l-0.12 0 c-0.56 0 -0.88 -0.44 -1.36 -0.44 c-0.64 0 -1.24 0.2 -1.88 0.2 c-0.52 0 -0.44 -0.32 -0.76 -0.32 c-0.08 0 -0.12 0.08 -0.2 0.16 z M57.268 19.92 c-0.04 0 -0.08 0.04 -0.08 0.12 c0 0.04 0.04 0.12 0.08 0.12 c0.08 0 0.08 -0.08 0.08 -0.12 c0 -0.08 0 -0.12 -0.08 -0.12 z M62.868 19.52 c0.04 0.08 -0.04 0.28 0.04 0.28 c0.24 0 0.72 -0.52 1.04 -0.52 c0.08 0 0.16 0.04 0.2 0.12 l2 0 c0.24 0.04 0.16 -0.6 0.16 -0.88 l-1 0 c-0.4 0 -0.24 -0.2 -0.4 -0.2 c-0.04 0 -0.12 0 -0.28 0.08 c-0.16 0.04 -0.16 -0.08 -0.16 -0.16 c0 -0.24 0.28 -0.4 0.52 -0.4 c0.2 0 0.36 0.08 0.4 0.28 c0.2 -0.12 0.24 -0.24 0.24 -0.32 c0 -0.36 -0.72 -0.68 -0.72 -1.04 c-0.12 0.12 -0.52 0.16 -1 0.16 c-0.92 0 -2.24 -0.16 -2.56 -0.16 c-0.52 0 -1.12 0.28 -1.6 0.28 c-0.4 0 -0.76 -0.12 -1.16 -0.12 c-0.2 0 -0.6 -0.04 -0.6 0.32 s0.24 0.44 0.48 0.44 c0.36 0 0.76 -0.16 0.96 -0.16 c0.4 0 1.04 0.24 1.4 0.24 c0.68 0 1.36 -0.28 2.04 -0.28 c0.44 0 1.24 0.28 1.4 0.52 c0 0.56 -0.72 0.72 -1.36 0.72 c-1.08 0 -1.2 -0.32 -1.68 -0.32 c-0.72 0.08 -1.4 0.28 -2.08 0.28 c-0.16 0 -0.32 -0.04 -0.48 -0.04 c0 0.24 0.08 0.76 -0.12 0.76 l0.12 0 c0.28 0 0.48 -0.28 0.76 -0.28 c0.8 0 1.36 0.28 2 0.28 c0.36 0 0.72 -0.04 1.16 -0.12 z M46.228 19.4 l0 0.12 l0.12 0 z M46.588 18.4 c-0.04 0 -0.08 0.04 -0.08 0.12 c0 0.04 0.04 0.12 0.08 0.12 c0.08 0 0.12 -0.08 0.12 -0.12 c0 -0.08 -0.04 -0.12 -0.12 -0.12 z M47.868 17.76 c-0.04 0 -0.08 0.04 -0.08 0.12 c0 0.04 0.04 0.12 0.08 0.12 c0.08 0 0.08 -0.08 0.08 -0.12 c0 -0.08 0 -0.12 -0.08 -0.12 z M48.268 17.76 c-0.04 0 -0.08 0.04 -0.08 0.12 c0 0.04 0.04 0.12 0.08 0.12 c0.08 0 0.08 -0.08 0.08 -0.12 c0 -0.08 0 -0.12 -0.08 -0.12 z M45.828 17.24 c-0.04 0 -0.08 0.08 -0.08 0.12 c0 0.08 0.04 0.16 0.08 0.16 c0.08 0 0.12 -0.08 0.12 -0.16 c0 -0.04 -0.04 -0.12 -0.12 -0.12 z M41.028000000000006 16.76 c0.24 0 0.28 0.12 0.4 0.12 c0.04 0 0.12 -0.04 0.24 -0.12 l2.64 0 c0.24 0.08 0.44 0.12 0.6 0.12 c0.52 0 0.68 -0.36 0.68 -0.72 c0 -0.32 -0.16 -0.68 -0.32 -0.68 c-0.76 0 -1.6 0.4 -2.36 0.4 c-0.16 0 -0.28 -0.12 -0.4 -0.12 c-0.16 0 -0.28 0.28 -0.76 0.28 c-1.04 0 -2.04 -0.2 -2.88 -0.2 l0 0.52 c-0.16 0 -0.32 0.04 -0.4 -0.12 c-0.08 0 -0.12 0 -0.12 0.04 c0 0.16 0.52 0.48 0.52 0.48 c0.08 0 0.16 0.04 0.2 0.04 c0.16 0 -0.12 -0.2 0.32 -0.2 c0.36 0 1.24 0.16 1.64 0.16 z M37.988 16.48 c-0.08 0 -0.12 0.08 -0.12 0.12 c0 0.08 0.04 0.16 0.12 0.16 s0.08 -0.08 0.08 -0.16 c0 -0.04 0 -0.12 -0.08 -0.12 z M57.388000000000005 15.84 l0.16 0.16 l1.64 0 c0.12 -0.16 0.4 -0.2 0.72 -0.2 c0.56 0 1.28 0.16 1.72 0.16 c0.2 0 0.32 -0.04 0.36 -0.12 c0.08 0 0.8 0.12 1.28 0.12 c0.24 0 0.44 -0.04 0.48 -0.12 c-0.4 -0.56 -0.88 -0.64 -1.4 -0.64 c-0.28 0 -0.6 0.04 -0.92 0.04 c-0.4 0 -0.76 -0.08 -0.76 -0.16 c0 -0.04 0.08 -0.04 0.04 -0.04 c-0.32 0 -0.92 0.2 -1.28 0.2 c-0.28 0 -0.64 -0.04 -0.88 -0.28 c-0.4 0 -1 0.12 -1.4 0.24 c-0.16 0.12 0.24 0.4 0.24 0.64 z M47.868 15.48 c-0.04 0 -0.08 0.04 -0.08 0.12 c0 0.04 0.04 0.12 0.08 0.12 c0.08 0 0.08 -0.08 0.08 -0.12 c0 -0.08 0 -0.12 -0.08 -0.12 z M39.988 14.84 l0.52 0.24 c0.08 0 0.68 -0.48 1 -0.48 c0.08 0 0.16 0.08 0.16 0.24 l1.88 0 c0.12 0.12 1.8 0.12 1.92 0.12 c-0.04 -0.16 -0.04 -0.32 -0.04 -0.44 c0 -1.76 1.76 -1.4 2.32 -1.96 l1.52 0 l0.12 -0.12 c-0.28 -0.44 -0.6 -0.52 -0.96 -0.52 c-0.16 0 -0.36 0.04 -0.52 0.04 c-0.36 0 -1.28 -0.32 -1.68 -0.32 c-0.68 0 -1.4 0.28 -1.96 0.28 l-0.84 0 c-0.24 0 -1.88 0.36 -2.04 0.64 c0 -0.12 -0.24 -0.4 -0.36 -0.4 c-0.24 0.12 -0.56 0.2 -0.64 0.28 c-0.2 0 -0.32 -0.2 -0.52 -0.2 c-0.16 0 -0.32 0.36 -0.56 0.36 c-0.08 0 -0.16 -0.04 -0.2 -0.16 c-0.12 0.08 -0.12 0.2 -0.12 0.28 c0 0.36 0.36 0.44 0.76 0.44 c0.76 0 0.92 -0.08 1.16 -0.24 l1.76 0 c0.08 0.08 0.12 0.12 0.16 0.12 c0.16 0 0.28 -0.28 0.44 -0.28 c0.24 0 0.4 0.2 0.56 0.2 c0.28 0 0.36 -0.2 0.44 -0.2 c0.4 0 1.16 0.12 1.16 0.56 c0 0.64 -1.52 0.64 -2.28 0.64 l-1.12 0 c-0.12 0 -0.12 0.12 -0.12 0.24 l-0.52 0 l0.28 -0.12 c-0.04 0 -0.08 -0.04 -0.12 -0.04 c-0.24 0 -0.48 0.2 -0.72 0.2 c-0.12 0 -0.24 -0.08 -0.32 -0.28 l-1 0 c0 0.44 -0.76 0.28 -0.76 0.84 l0 0.16 c0.28 0 0.68 -0.16 1 -0.16 c0.08 0 0.16 0 0.24 0.04 z M58.788000000000004 14.719999999999999 c-0.04 0 -0.08 0.04 -0.08 0.12 c0 0.04 0.04 0.12 0.08 0.12 c0.08 0 0.08 -0.08 0.08 -0.12 c0 -0.08 0 -0.12 -0.08 -0.12 z M55.508 13.84 l0.76 0.76 c0.2 0.12 0.64 -0.44 0.64 -0.6 c0 -0.44 -1.12 -0.44 -1.4 -0.44 l0 0.28 z M64.388 14.440000000000001 c-0.04 0 -0.08 0.08 -0.08 0.12 c0 0.08 0.04 0.16 0.08 0.16 c0.08 0 0.08 -0.08 0.08 -0.16 c0 -0.04 0 -0.12 -0.08 -0.12 z M59.30800000000001 14.32 l0.24 0.12 c0.52 0 1.32 0.12 1.32 -0.32 c0 -0.16 -1.84 -0.48 -2.2 -1.2 c-0.32 0.96 -1.56 0.28 -1.56 1.04 c0 0.4 0.76 0.4 1.16 0.4 s0.8 -0.04 1.04 -0.04 z M47.108000000000004 13.440000000000001 c0 0.12 0.28 0.64 0.28 0.76 l0 0.12 c0.08 -0.08 0.2 -0.4 0.2 -0.64 c0 -0.2 -0.08 -0.32 -0.24 -0.32 c-0.04 0 -0.12 0.04 -0.24 0.08 z M39.228 14.079999999999998 c0 -0.08 -0.04 -0.08 -0.04 -0.08 c-0.04 0 -0.08 0 -0.08 0.08 c0 0.04 0.04 0.08 0.08 0.08 c0 0 0.04 -0.04 0.04 -0.08 z M40.908 13.96 c-0.08 0 -0.12 0.04 -0.12 0.12 c0 0.04 0.04 0.12 0.12 0.12 s0.08 -0.08 0.08 -0.12 c0 -0.08 0 -0.12 -0.08 -0.12 z M64.268 13.96 l0.12 0.12 l0 -0.12 l-0.12 0 z M64.748 13.68 l0 0.16 l0.16 0 l0 -0.16 l-0.16 0 z M53.58800000000001 12.920000000000002 c0.04 0.04 0.12 0.08 0.28 0.08 c0.44 0 2.44 -0.48 2.44 -0.56 s-0.12 -0.16 -0.2 -0.16 s-0.2 0.04 -0.24 0.16 c-0.2 -0.2 -0.36 -0.28 -0.48 -0.28 c-0.28 0 -0.48 0.28 -0.72 0.28 c-0.04 0 -1.08 -0.52 -1.72 -0.52 c-0.28 0 -0.52 0.08 -0.52 0.4 c0 0.08 0.04 0.16 0.04 0.24 c0.04 -0.04 0.12 -0.04 0.16 -0.04 c0.24 0 0.92 0.12 0.96 0.4 z M50.548 12.280000000000001 c0.28 0.24 0.44 0.32 0.56 0.32 c0.08 0 0.12 -0.04 0.12 -0.12 c0 -0.2 -0.12 -0.48 -0.32 -0.68 c-0.04 0.04 -0.12 0.08 -0.24 0.08 c-0.2 0 -0.44 -0.12 -0.56 -0.12 s-0.16 0.32 -0.28 0.32 c-0.04 0 -0.08 -0.04 -0.16 -0.04 c-0.04 0 -0.08 0.04 -0.12 0.12 c0.12 0.16 0.2 0.2 0.28 0.2 c0.16 0 0.2 -0.24 0.4 -0.24 c0.08 0 0.2 0.04 0.32 0.16 z M51.548 12.16 c0.08 0.08 0.24 0.16 0.4 0.16 c0.08 0 0.2 -0.04 0.24 -0.16 c0 -0.12 -0.16 -0.2 -0.32 -0.2 s-0.32 0.08 -0.32 0.2 z M71.13600000000001 39.48 c-0.12 -0.12 -0.16 -0.28 -0.16 -0.4 c0 -0.84 0.76 -1.28 0.76 -2.24 c0 -0.44 -0.04 -0.84 -0.04 -1.24 c0 -0.28 0.12 -0.6 0.12 -0.84 s-0.28 -0.4 -0.28 -0.72 l0 -1.4 c0.16 -0.2 0.36 -0.72 0.36 -1.16 c0 -0.32 -0.12 -0.56 -0.48 -0.6 c0.08 -0.16 0.08 -0.24 0.08 -0.36 c0 -0.08 0 -0.16 -0.08 -0.28 l0.08 0 c0.2 0 0.32 -0.2 0.32 -0.4 s-0.12 -0.44 -0.28 -0.48 l0.36 -0.28 c-0.24 0 -0.44 -0.48 -0.36 -0.52 c0.08 0.04 0.12 0.04 0.2 0.04 c0.12 0 0.16 -0.12 0.16 -0.24 c0 -0.16 -0.08 -0.36 -0.12 -0.4 l0 -2.44 c0.16 -0.16 0.2 -0.28 0.2 -0.4 c0 -0.52 -0.64 -1.48 -0.32 -1.88 l0.24 -0.12 c0.04 -1.28 -0.24 -1.2 -0.2 -1.2 c0 0 0.08 -0.08 0.32 -0.56 c0 -0.08 0.04 -0.32 -0.04 -0.32 s-0.16 0.2 -0.24 0.2 c-0.12 0 -0.12 -0.24 -0.12 -0.24 c0 -0.08 0.2 -0.04 0.2 -0.64 c0 -0.52 -0.16 -1.16 -0.16 -1.56 c0.12 -0.76 0.24 -1.64 0.24 -2.4 c0 -0.28 -0.48 -0.28 -0.48 -0.52 c0 -0.6 -0.16 -1.16 -0.16 -1.24 c0 -0.32 0.48 -0.92 0.48 -1.24 c0 -0.08 0 -0.16 -0.08 -0.2 c0 0.16 -0.12 0.16 -0.24 0.16 c-0.16 -0.44 -0.32 -0.88 -0.32 -1.32 c0 -0.36 0.16 -0.68 0.56 -0.84 l0.4 0 c1.56 0 3.08 -0.44 4.56 -0.44 c0.52 0 1.04 0.16 1.56 0.16 c0.32 0 0.64 -0.28 0.84 -0.36 l0.12 0.24 c0.08 0 1.4 -0.12 2.28 -0.12 c0.08 -0.16 1.48 -0.28 2.28 -0.28 c0 0.16 0 0.28 0.16 0.28 c0.12 -0.12 0.24 -0.28 0.36 -0.28 l2.28 0 c0.12 0.2 0.4 0.24 0.72 0.24 s0.68 -0.04 1 -0.04 c0.56 0 1.04 0.08 1.2 0.6 c0 -0.56 0.8 -0.68 0.8 -0.68 c0.32 0 0.4 0.32 0.96 0.32 c0.2 0 0.16 -0.16 0.52 -0.16 c0.32 0 1.36 0.52 1.96 0.52 c0.16 0 0.32 -0.04 0.36 -0.16 c0.16 0 0.68 0.16 1.08 0.16 c0.28 0 0.52 -0.08 0.56 -0.28 l0.36 0.4 c0.08 -0.12 0.2 -0.16 0.36 -0.16 c0.6 0 1.52 0.68 1.72 0.68 s0.44 -0.2 0.68 -0.2 c0.04 0 0.48 0.2 0.68 0.44 c1.24 0 1.96 0.56 2.68 1.52 c1.36 0.44 0.76 0.72 1 1 c0.76 0.76 1.56 1.84 1.56 3.04 c0 0.16 0 0.36 -0.04 0.52 c0.2 0.12 0.24 0.24 0.24 0.32 s-0.52 0.6 -0.52 0.88 c0 0.12 0.08 0.16 0.08 0.36 c0 0.04 0 0.12 -0.04 0.24 c0 0.08 -1.48 1.96 -3.16 2.64 c-0.92 0.36 -1.92 0.28 -2.8 0.76 c0.24 0.64 2.04 0.4 2.52 1.04 c0.12 0.08 0.72 0.44 1 0.44 c0.08 0 0.16 -0.04 0.16 -0.08 c0 0.24 1 1.16 1.36 1.16 l0.04 0 c0.32 0.2 1.96 2.36 1.96 3 c0 0.08 0 0.12 -0.08 0.16 c0.44 0.16 0.56 0.88 0.56 1.68 c0 0.96 -0.16 2.04 -0.16 2.56 l0 0.2 c-0.64 0.36 -0.24 1.32 -0.76 1.8 c-0.44 0.44 -1.48 0.32 -1.16 1.12 c-0.88 0.08 -1.56 1 -2.28 1.4 c-0.2 0.08 -1.08 0.6 -1.44 0.6 c-0.12 0 -0.16 0 -0.2 -0.08 l0 0.04 c0 0.16 -0.2 0.24 -0.4 0.24 c-0.16 0 -0.36 -0.04 -0.36 -0.16 c-0.76 0.52 -1.68 0.24 -2.56 0.52 c-0.36 0.12 -0.64 0.36 -1 0.36 c0 0 -0.84 -0.2 -1.28 -0.2 c-0.28 0 -1.44 0.04 -1.76 0.2 l-0.28 -0.24 c-0.36 0 -1 0.4 -1.2 0.4 c-0.32 0 -0.6 -0.28 -0.8 -0.28 c-0.44 0 -0.68 0.28 -1.16 0.28 c-0.2 0 -0.44 -0.28 -0.76 -0.28 c-1.4 0.24 -2.68 0.24 -4.08 0.24 c-0.28 -0.16 -0.56 -0.24 -0.84 -0.24 c-0.72 0 -1.44 0.4 -2.2 0.4 c-0.68 0 -0.76 -0.44 -1.72 -0.44 c-0.56 0 -1.2 0.44 -1.64 0.44 s-0.68 -0.32 -1.12 -0.32 c-0.08 0 -0.12 0.04 -0.2 0.04 l0 -0.12 c-0.04 -0.04 -0.08 -0.04 -0.12 -0.04 c-0.2 0 -0.28 0.16 -0.4 0.28 c-0.04 -0.12 -0.08 -0.16 -0.16 -0.16 c-0.16 0 -0.32 0.32 -0.4 0.32 c-0.12 0 -0.24 -0.16 -0.32 -0.16 c-0.04 0 -0.08 0.04 -0.12 0.28 c0 -0.24 -0.84 -0.44 -1.32 -0.44 c-0.24 0 -0.88 0.56 -1.48 0.56 c0.08 0 -0.88 -0.4 -1.16 -0.4 z M88.016 38.72 c-0.04 0 -0.08 0.08 -0.08 0.12 c0 0.08 0.04 0.16 0.08 0.16 c0.08 0 0.12 -0.08 0.12 -0.16 c0 -0.04 -0.04 -0.12 -0.12 -0.12 z M75.57600000000001 38.6 c0.04 0.08 0.12 0.12 0.16 0.12 c0.16 0 0.28 -0.4 0.56 -0.4 c0.08 0 0.2 0.04 0.32 0.16 c0 -0.12 -0.12 -0.24 -0.12 -0.36 c0.6 0 0.84 -0.52 1.2 -0.52 c0.64 0 1.6 0.8 1.92 0.8 c0.44 0 1 -0.44 1.44 -0.44 c0.08 0 0.16 -0.04 0.16 0.08 c0 0.08 -0.16 0.16 -0.16 0.28 l0 0.04 c0.28 0 0.36 -0.2 0.36 -0.32 c0 -0.4 -0.92 -1 -1 -1.6 c0 -0.24 0 -0.48 0.12 -0.76 c-0.12 0 -0.24 0.12 -0.36 0.12 l0 -0.36 c-0.28 0.24 -0.6 0.28 -0.88 0.28 c-0.4 0 -0.8 -0.08 -1.16 -0.16 c-0.04 0.04 -0.16 0.08 -0.24 0.08 c-0.12 0 -0.2 -0.04 -0.28 -0.08 l-1.52 0 c-0.08 0.04 -0.32 0.08 -0.6 0.08 c-0.6 0 -1.48 -0.12 -2.08 -0.12 c-0.48 0 -0.36 0.2 -0.36 0.44 c0 0.56 0.12 0.68 0.4 0.68 c0.4 0 2.96 -0.16 3.64 -0.16 c0.92 0 2.96 0.28 2.96 0.64 c0 0.16 -0.96 0.28 -1 0.28 c-0.16 0 -0.36 -0.04 -0.68 -0.2 c-0.84 0 -2.04 0.16 -3.28 0.16 l-0.4 0.36 c0.28 0.28 0.88 0.72 0.88 0.88 z M82.696 38.72 c0 -0.08 -0.04 -0.08 -0.04 -0.08 c-0.04 0 -0.08 0 -0.08 0.08 s0.04 0.12 0.08 0.12 c0 0 0.04 -0.04 0.04 -0.12 z M73.816 38.6 c0 -0.08 -0.04 -0.08 -0.04 -0.08 c-0.04 0 -0.08 0 -0.08 0.08 c0 0.04 0.04 0.08 0.08 0.08 c0 0 0.04 -0.04 0.04 -0.08 z M74.05600000000001 38.48 c-0.04 0 -0.08 0.04 -0.08 0.12 c0 0.04 0.04 0.12 0.08 0.12 c0.08 0 0.08 -0.08 0.08 -0.12 c0 -0.08 0 -0.12 -0.08 -0.12 z M81.816 38.6 c0 -0.08 -0.04 -0.08 -0.04 -0.08 c-0.04 0 -0.08 0 -0.08 0.08 c0 0.04 0.04 0.08 0.08 0.08 c0 0 0.04 -0.04 0.04 -0.08 z M95.77600000000001 38.24 c-0.04 0 -0.08 0.04 -0.08 0.12 c0 0.04 0.04 0.12 0.08 0.12 c0.08 0 0.08 -0.08 0.08 -0.12 c0 -0.08 0 -0.12 -0.08 -0.12 z M84.61600000000001 38.24 c-0.04 0 -0.08 0.04 -0.08 0.04 c0 0.04 0.04 0.08 0.08 0.08 c0.08 0 0.08 -0.04 0.08 -0.08 c0 0 0 -0.04 -0.08 -0.04 z M73.536 38.12 c0.16 0.04 0.36 0.08 0.52 0.08 c0.24 0 0.4 -0.08 0.4 -0.36 c0 -0.48 -0.8 -0.32 -1.04 -0.64 c0 0 -0.16 -0.28 -0.28 -0.28 s-0.12 0.16 -0.12 0.28 c0 0.36 0.24 0.8 0.52 0.92 z M81.696 37.72 l0 0.52 l0.64 -0.4 c0.12 0.4 1.36 0.4 1.64 0.4 c0.36 0 0.36 -0.4 0.88 -0.4 c0.24 0 0.24 0.16 0.32 0.16 s0.2 -0.08 0.44 -0.28 c0 0.12 0.4 0.52 0.52 0.52 s1.04 -0.24 1.04 -0.6 c0 -0.08 0 -0.12 -0.04 -0.16 c-0.32 0.08 -0.6 0.12 -0.88 0.12 c-0.4 0 -0.76 -0.08 -1.12 -0.08 c-0.24 0 -0.4 0.04 -0.64 0.08 l0 -0.12 c-0.12 -0.04 -0.2 0 -0.28 0.12 l-0.52 -0.12 c-0.2 0 -0.84 0.12 -1.36 0.12 c-0.32 0 -0.6 -0.04 -0.64 -0.24 c-0.08 0 -0.12 0.04 -0.12 0.08 c0 0.12 0.12 0.28 0.12 0.28 z M88.296 37.96 c0.28 0.16 0.6 0.24 0.96 0.24 c0.52 0 1.16 -0.16 1.56 -0.48 c0.36 0 2.12 0.52 2.6 0.52 l0.08 0 l0 -0.4 c0.32 0.08 0.4 -0.2 0.4 -0.28 c0 -0.52 -1.8 -0.36 -2.96 -0.36 c-0.28 -0.24 -0.52 -0.32 -0.8 -0.32 c-0.72 0 -1.44 0.72 -2.16 0.72 l-0.2 0 l0 0.08 c0 0.16 0.4 0.28 0.52 0.28 z M95.41600000000001 37.84 l0.24 0.28 c-0.08 -0.64 1.2 -0.8 1.96 -0.8 c0.16 0 0.32 0 0.44 0.04 c0.16 -0.48 0.36 -0.6 0.56 -0.6 c0.24 0 0.48 0.2 0.56 0.2 c0.12 0 0.92 -0.92 0.92 -1 c-0.2 -0.28 -0.44 -0.36 -0.72 -0.36 c-0.36 0 -0.76 0.16 -1.04 0.16 c-0.12 0 -0.64 -0.16 -0.64 -0.44 c0.68 -0.8 4.2 0.44 4.2 -1.04 c0 -0.08 0.04 -0.28 -0.24 -0.28 c-0.16 0 -0.28 0.08 -0.28 0.28 l0 0.12 c-0.28 -0.32 -0.68 -0.4 -1.12 -0.4 c-0.52 0 -1.12 0.12 -1.52 0.12 c-0.16 0 -0.32 0 -0.4 -0.08 l-2.68 0 c-0.04 0.2 -0.2 0.28 -0.36 0.28 c-0.48 0 -1.24 -0.56 -1.44 -0.68 l0 0.4 c-0.88 0.28 -2.16 2.32 -2.16 2.28 c0 0.16 0.16 0.28 0.4 0.4 l0.24 -0.16 c0.44 0 0.84 0.08 1.28 0.08 c0.2 0 0.44 -0.04 0.64 -0.08 c0.4 -0.12 0.92 0.32 0.92 0.48 s-0.08 0.36 -0.28 0.44 c0 0.12 0.08 0.16 0.2 0.16 s0.24 -0.04 0.32 -0.04 l0 0.24 z M77.736 37.72 c-0.04 0 -0.08 0.04 -0.08 0.12 c0 0.04 0.04 0.12 0.08 0.12 c0.08 0 0.08 -0.08 0.08 -0.12 c0 -0.08 0 -0.12 -0.08 -0.12 z M87.41600000000001 37.72 l0 0.12 l0.12 0 l0 -0.24 z M99.21600000000001 37.6 c0 0.08 0 0.12 0.08 0.12 c0.16 0 0.16 -0.4 0.16 -0.52 c-0.12 0.16 -0.24 0.28 -0.24 0.4 z M98.176 37.6 c0 -0.08 -0.04 -0.08 -0.04 -0.08 c-0.04 0 -0.08 0 -0.08 0.08 c0 0.04 0.04 0.08 0.08 0.08 c0 0 0.04 -0.04 0.04 -0.08 z M100.976 37.36 l0.12 0.12 c0 -0.12 0 -0.28 -0.12 -0.28 l0 0.16 z M95.77600000000001 37.08 c0 -0.08 -0.04 -0.12 -0.04 -0.2 c0 -0.28 0.32 -0.36 0.64 -0.36 c0.56 0 1.36 0.12 1.68 0.2 l0 0.12 c-0.24 0.16 -1.52 0.4 -2.04 0.4 c-0.12 0 -0.2 -0.04 -0.24 -0.16 z M101.61600000000001 36.72 c-0.04 0 -0.08 0.04 -0.08 0.04 c0 0.04 0.04 0.08 0.08 0.08 c0.08 0 0.08 -0.04 0.08 -0.08 c0 0 0 -0.04 -0.08 -0.04 z M83.85600000000001 36.44 l1 0.12 c0.36 -0.48 0.56 -0.64 0.8 -0.64 c0.28 0 0.52 0.28 0.96 0.28 c0.24 0 0.48 -0.04 0.72 -0.04 c0.52 0 1 0.08 1.52 0.08 c1 0 0.92 -0.2 1 -0.2 c0.04 0 0.12 0 0.32 0.04 c0.04 -0.04 0.04 -0.08 0.04 -0.12 c0 -0.16 -0.16 -0.2 -0.16 -0.32 c0 0.04 2.56 -1.52 2.68 -1.84 c0 -0.52 0.92 -1.48 0.92 -3.4 c0 -1.44 -0.92 -3.92 -2.08 -4.36 c-0.72 0 -1 -0.44 -1.28 -0.44 c-0.04 0 -0.08 0 -0.12 0.04 c-0.28 -0.28 -0.92 -0.8 -0.88 -0.88 l-0.24 0.12 c-0.52 0.12 -2.16 -0.12 -3.2 -0.12 c-0.12 0 -0.48 0.28 -0.6 0.28 c-1.16 0 -1.6 -0.6 -1.6 -1.28 c0 -0.76 0.48 -1.64 0.8 -1.64 c0.08 0 0.12 0.04 0.16 0.12 c0 -0.2 0.16 -0.28 0.36 -0.28 c0.24 0 0.48 0.12 0.48 0.32 c0 0.04 -0.04 0.12 -0.08 0.2 c0.32 -0.2 0.56 -0.28 0.8 -0.28 c0.48 0 0.8 0.28 1.12 0.28 c0.28 0 0.68 -0.28 0.84 -0.28 l0.16 0 c0.08 0 1.2 -0.6 1.88 -0.6 c1.92 0.16 2.04 -2.76 2.04 -4 c0 -0.52 -0.08 -0.84 -0.24 -1.32 c-0.32 -1 -2.16 -2.6 -3.2 -2.6 c-0.32 0 -0.6 0.04 -0.88 0.04 c-0.12 0 -1.52 -0.64 -1.88 -0.64 c-0.6 0 -1.16 0.52 -1.84 0.52 l-0.2 0 c0.04 0.08 0.04 0.12 0.04 0.2 c0 0.64 -1 0.88 -1 1.44 c0 0.28 0.28 0.08 0.28 0.72 c0 0.72 -0.24 1.96 -0.24 2.56 c0 0.88 0.32 0.68 0.32 0.88 c0 0.48 -0.32 1.08 -0.32 1.48 c0 0.48 0.56 0.68 0.56 1 c0 0.04 -0.04 0.04 -0.04 0.08 c-0.52 0.48 -0.64 0.92 -0.64 1.56 s0.16 1.4 0.16 2.04 c0 0.68 -0.2 1.16 -0.76 1.64 l0.24 0.24 c0.12 -0.12 0.24 -0.24 0.24 -0.4 l0.12 0.16 c0 0.88 0.16 2.08 0.16 2.4 c-0.4 0.32 -0.28 1.28 -0.28 1.76 c0 0.12 0.4 0.76 0.4 0.92 c0.04 0.72 -0.2 1.36 -0.2 1.92 c0 0.48 0.32 2.24 0.84 2.24 z M101.096 36.08 l0 0.12 l0.16 0 z M94.61600000000001 35.8 l-1.24 0 l-0.28 -0.48 c0.2 -0.12 0.28 -0.12 0.4 -0.12 c0.08 0 0.16 0.04 0.36 0.04 c0.32 0 0.4 -0.32 0.8 -0.32 c0.6 0 2.76 0.32 2.76 0.56 c0 0.12 -1.12 0.32 -2.4 0.32 c-0.04 0.08 -0.12 0.12 -0.16 0.12 c-0.08 0 -0.16 -0.04 -0.24 -0.12 z M103.416 35.44 c0.04 0.08 -0.04 0.24 0.04 0.24 s0.2 -0.16 0.2 -0.24 s-0.04 -0.12 -0.12 -0.12 z M102.89600000000002 35.2 l0 0.36 c0.28 0 0.44 -0.48 0.36 -0.52 c-0.12 0 -0.36 0 -0.36 0.16 z M82.33600000000001 35.2 c-0.08 0 -0.12 0.04 -0.12 0.12 c0 0.04 0.04 0.12 0.12 0.12 s0.08 -0.08 0.08 -0.12 c0 -0.08 0 -0.12 -0.08 -0.12 z M79.77600000000001 34.8 c0.12 0 0.4 0.24 0.4 0.4 c0.2 -0.28 0.24 -0.64 0.24 -0.88 c0 -0.88 -1.04 -0.72 -2.24 -0.72 c-0.44 0 -0.92 0.04 -1.08 0.2 c-0.92 0 -2.84 -0.08 -2.92 0.12 c-0.12 0 -0.48 -0.12 -0.64 -0.12 c-0.12 0.04 -0.16 0.12 -0.16 0.2 c0 0.28 0.48 0.6 0.56 0.8 c0.08 -0.16 0.12 -0.28 0.24 -0.4 l0.4 0.28 c1.52 0 3.48 0.24 4.32 0.24 c0.2 0 0.48 -0.16 0.72 -0.16 c0.08 0 0.12 0 0.16 0.04 z M103.416 34.68 c-0.08 0 -0.12 0.04 -0.12 0.12 c0 0.04 0.04 0.12 0.12 0.12 s0.08 -0.08 0.08 -0.12 c0 -0.08 0 -0.12 -0.08 -0.12 z M91.85600000000001 34.56 c-0.08 0 -0.12 0.04 -0.12 0.12 c0 0.04 0.04 0.12 0.12 0.12 s0.08 -0.08 0.08 -0.12 c0 -0.08 0 -0.12 -0.08 -0.12 z M81.05600000000001 34.4 c-0.04 0 -0.08 0.08 -0.08 0.12 c0 0.08 0.04 0.16 0.08 0.16 c0.08 0 0.08 -0.08 0.08 -0.16 c0 -0.04 0 -0.12 -0.08 -0.12 z M104.656 33.64 c-0.04 0 -0.08 0.08 -0.08 0.12 c0 0.08 0.04 0.16 0.08 0.16 c0.08 0 0.08 -0.08 0.08 -0.16 c0 -0.04 0 -0.12 -0.08 -0.12 z M73.176 33.4 c0.08 0.12 0.12 0.32 0.24 0.24 c0 -0.08 -0.04 -0.2 -0.04 -0.28 c0 -0.24 1.92 -0.4 1.88 -0.4 c0.48 0 1 0.2 1.24 0.2 c0.08 0 0.28 -0.12 0.36 -0.28 c0.32 0.24 0.64 0.28 0.84 0.28 c0.52 0 1.04 -0.16 1.56 -0.16 c0.28 0 0.84 0.16 1.04 0.4 c0.12 -0.2 0.16 -0.44 0.16 -0.64 c0 -0.48 -0.16 -0.92 -0.16 -1.4 c0 -0.16 0 -0.32 0.12 -0.48 c-0.2 -0.28 -0.76 -0.52 -0.76 -0.64 l-1.4 0 c-0.12 -0.08 -0.2 -0.08 -0.32 -0.08 c-0.52 0 -1.56 0.24 -2.44 0.24 c-0.48 0 -0.8 -0.08 -1.16 -0.28 c-0.56 0 -1.68 -0.24 -1.68 0.52 c0 0.44 0.88 0.56 0.96 0.56 c0.32 0 0.64 -0.12 0.88 -0.12 c0.12 0 0.24 0.04 0.32 0.16 l2.16 0 c0.16 0.16 0.32 0.2 0.48 0.2 c0.28 0 0.6 -0.24 0.84 -0.24 c0.08 0 0.16 0.04 0.24 0.04 c0.28 0 0.56 -0.16 0.84 -0.16 c0.2 0 0.4 0.12 0.52 0.4 c-0.16 0.28 -0.48 0.48 -0.8 0.48 c-0.12 0 -0.2 0 -0.32 -0.08 l-2.28 0 c-0.04 0.12 -0.12 0.16 -0.16 0.16 c-0.16 0 -0.32 -0.16 -0.48 -0.16 c-0.28 0 -1.16 0.4 -1.4 0.4 c-0.24 -0.32 -0.64 -0.28 -0.76 -0.28 c-0.52 0 -0.68 0.2 -0.68 0.52 c0 0.24 0.08 0.56 0.16 0.88 z M97.816 33.519999999999996 l0.36 0.12 l0.4 -0.24 c0.4 0 1.04 0.12 1.16 0.12 c0.52 0 1.08 -0.2 1.6 -0.2 c0.6 0 0.4 0.36 0.56 0.36 c1.16 0 1 -1.64 1 -2.32 c0 -0.72 -0.08 -0.68 -0.88 -0.68 s-1.6 0.16 -1.56 0.16 c-0.12 0 -0.28 -0.16 -0.36 -0.24 l0 0.04 c0 0.2 -0.28 0.32 -0.6 0.32 c-0.24 0 -0.48 -0.08 -0.56 -0.24 l-1.88 0 c-0.12 0.08 -0.2 0.12 -0.24 0.12 c-0.16 0 -0.12 -0.28 -0.32 -0.28 c-0.04 0 -0.64 0.32 -0.84 0.32 c-0.08 0 -0.32 -0.2 -0.52 -0.2 c-0.16 0 -0.24 0.12 -0.24 0.32 c0 0.6 0.56 0.8 1.16 0.8 c0.16 0 0.32 -0.04 0.48 -0.04 l0.12 0.12 l0.88 0 c0 0.2 0.12 0.28 0.2 0.28 c0.12 0 0.2 -0.08 0.2 -0.28 c0.24 0 0.76 0.04 0.76 -0.12 l0.88 0 c0.04 -0.12 0.08 -0.16 0.12 -0.16 c0.16 0 0.36 0.28 0.52 0.28 l0.28 -0.12 c0.56 0 1.64 -0.04 1.88 0.12 l0 0.64 c-0.24 0 -0.52 0 -0.64 0.12 l-1.4 -0.24 l-0.12 -0.12 c-0.04 0 -0.36 0.24 -0.52 0.36 c-0.24 0 -1.68 -0.4 -1.68 -0.4 c-0.16 0 -0.16 0.16 -0.4 0.16 c-0.12 0 -0.28 -0.04 -0.56 -0.12 c-0.12 0 -1.28 0.24 -1.52 0.24 c-0.2 0 -0.56 -0.16 -0.84 -0.16 c-0.16 0 -0.72 0.36 -0.72 0.92 c0 0.12 0.08 0.24 0.28 0.24 l2.4 0 c0.2 -0.08 0.36 -0.08 0.56 -0.08 c0.16 0 0.36 0 0.6 0.08 z M103.536 33.519999999999996 c-0.04 0 -0.08 0.04 -0.08 0.04 c0 0.04 0.04 0.08 0.08 0.08 c0.08 0 0.08 -0.04 0.08 -0.08 c0 0 0 -0.04 -0.08 -0.04 z M104.536 32.519999999999996 l0.12 0.12 c0.12 0 0.16 -0.16 0.16 -0.28 c0 -0.2 -0.04 -0.36 -0.04 -0.36 c-0.16 0.08 -0.28 0.2 -0.28 0.32 c0 0.08 0 0.12 0.04 0.2 z M94.61600000000001 31.880000000000003 c-0.04 0 -0.08 0.04 -0.08 0.04 c0 0.04 0.04 0.08 0.08 0.08 c0.08 0 0.12 -0.04 0.12 -0.08 c0 0 -0.04 -0.04 -0.12 -0.04 z M104.416 31.48 c-0.04 0 -0.08 0.08 -0.08 0.12 c0 0.08 0.04 0.16 0.08 0.16 c0.08 0 0.08 -0.08 0.08 -0.16 c0 -0.04 0 -0.12 -0.08 -0.12 z M104.296 31.36 c-0.04 0 -0.08 0.08 -0.08 0.12 c0 0.08 0.04 0.16 0.08 0.16 c0.08 0 0.08 -0.08 0.08 -0.16 c0 -0.04 0 -0.12 -0.08 -0.12 z M104.536 31 c-0.04 0 -0.08 0.04 -0.08 0.04 c0 0.04 0.04 0.08 0.08 0.08 c0.08 0 0.08 -0.04 0.08 -0.08 c0 0 0 -0.04 -0.08 -0.04 z M82.176 30.880000000000003 c-0.04 0 -0.08 0.04 -0.08 0.12 c0 0.04 0.04 0.12 0.08 0.12 c0.08 0 0.12 -0.08 0.12 -0.12 c0 -0.08 -0.04 -0.12 -0.12 -0.12 z M104.296 30.72 l0 0.16 l0.12 0 z M105.17600000000002 30.36 l0.12 0.24 c0.08 -0.04 0.12 -0.12 0.12 -0.2 c0 -0.16 -0.08 -0.28 -0.24 -0.28 l0 0.24 z M94.49600000000001 30.119999999999997 c0 0.12 0.4 0.36 0.4 0.36 l0.12 0 c0.16 -0.08 -0.24 -0.44 -0.24 -0.64 c0.32 0 0.6 -0.12 0.88 -0.12 s0.6 0.28 0.76 0.28 c0.12 0 0.2 -0.08 0.48 -0.08 c1.12 0 2.64 -0.04 3.44 0.44 l0.12 0 c0.2 0 0.32 -0.24 0.4 -0.24 c0.28 0 0.72 0.08 1.12 0.08 c0.52 0 0.96 -0.12 0.96 -0.68 c0 -0.08 0 -0.2 -0.04 -0.32 c-0.12 -0.32 -1 -1.92 -1.44 -1.92 c0 0 -0.04 0 -0.08 0.04 c-0.64 -0.64 -1.16 -1.28 -1.8 -1.8 c-0.24 -0.12 -2.16 -0.6 -2.16 -1.16 l0 -0.08 c-0.12 0 -0.24 0.12 -0.36 0.12 c0 -0.12 0 -0.4 -0.12 -0.4 c0 0.32 -0.04 0.4 -0.12 0.4 c-0.16 0 -0.4 -0.24 -0.6 -0.24 c-0.12 0 -0.24 0.04 -0.32 0.24 c-0.36 -0.52 -1.76 -0.56 -1.76 -0.8 c0 -0.16 0.24 -0.44 0.24 -0.64 c0 -0.36 -1.36 -0.24 -2.4 -0.24 c-0.56 0 -0.72 -0.28 -1.16 -0.28 c-0.72 0 -0.8 0.52 -1.4 0.68 c-0.32 0 -0.76 -0.04 -0.88 0.12 l-0.52 -0.24 l-0.48 0.24 c-0.8 -0.28 -1.72 -0.24 -2.56 -0.24 c0 0.8 0.28 1 0.72 1 c0.56 0 1.24 -0.56 1.64 -0.56 c0.84 0 1.4 0.6 1.68 0.6 c0.12 0 0.24 -0.04 0.4 -0.04 c0.76 0 0.88 0.52 1.68 0.64 c0.52 -0.28 -0.24 -0.72 0.76 -0.72 c0.8 0 2.28 0.2 2.52 0.6 c-0.12 0.08 -0.2 0.12 -0.24 0.12 c-0.08 0 -0.12 -0.04 -0.2 -0.04 c-0.12 0 -0.68 0.44 -0.96 0.44 c-0.12 0 -0.48 -0.4 -0.64 -0.4 c-0.52 0 -0.64 0.32 -0.64 0.4 c0 0.32 0.88 0.48 1.04 0.76 c0.28 0.48 0.44 1.36 1.04 1.36 c0.28 0 0.84 -0.48 2 -0.48 c0.2 0.2 1.92 0.08 2.04 0.12 l0.24 -0.24 c0.32 0.72 2.52 0.2 2.52 0.6 c0 0.16 -0.24 0.24 -0.56 0.24 c-0.24 0 -0.52 -0.04 -0.68 -0.2 l-0.12 0.24 c-0.12 0.12 -1.92 0.12 -1.92 0.12 c-0.88 0 -1.52 0.16 -1.88 0.16 c-0.52 0 -1.04 -0.16 -1.56 -0.16 c0.4 0.24 0.52 0.76 0.92 1.16 c0.04 -0.24 0.4 -0.36 0.8 -0.36 c0.48 0 1 0.2 1.08 0.48 c0.28 -0.4 0.64 -0.28 1.04 -0.52 l1.88 0 l0 0.24 l1.8 0 c0.16 0 0.44 -0.24 0.6 -0.24 c0.2 0 0.28 0.4 0.28 0.48 c0 0.28 -0.24 0.36 -0.6 0.36 c-0.52 0 -1.24 -0.2 -1.32 -0.2 c-0.4 0.08 -1.24 0.4 -1.8 0.4 c-0.68 0 -1.36 -0.32 -2.04 -0.32 c-0.44 0 -0.84 0.12 -1.2 0.12 c-0.16 0 -0.36 0 -0.52 -0.08 l0 0.64 l-0.4 0 c0 0.12 0.12 0.24 0.12 0.4 z M104.296 30.119999999999997 c-0.04 0 -0.08 0.04 -0.08 0.12 c0 0.04 0.04 0.12 0.08 0.12 c0.08 0 0.08 -0.08 0.08 -0.12 c0 -0.08 0 -0.12 -0.08 -0.12 z M73.176 29.72 l0.12 0.12 l0 -0.36 l2.56 0 c0.24 0.08 0.44 0.12 0.68 0.12 c0.6 0 1.24 -0.28 1.88 -0.28 c0.36 0 0.92 0.2 1.52 0.2 c0.24 0 0.4 -0.04 0.6 -0.32 c-0.04 -0.16 -0.04 -0.32 -0.04 -0.48 c0 -0.32 0.04 -0.72 0.04 -1.08 c0 -0.52 -0.16 -1.12 -0.92 -1.12 c-0.24 0 -0.48 0.16 -0.88 0.16 l-0.24 0 c-0.44 -0.12 -3.56 0 -3.68 -0.12 l-1.4 0 c-0.16 0 -0.2 0.36 -0.2 0.68 c0 0.36 0.04 0.72 0.16 0.72 c-0.08 0 0.76 -0.32 1.32 -0.32 c0.16 0 0.4 0.16 0.88 0.16 c0.24 0 0.52 -0.08 0.8 -0.08 s0.52 0.08 0.52 0.44 c0 0.08 0 0.16 -0.04 0.28 l-0.24 -0.12 c-0.76 0.12 -1.68 0.12 -2.44 0.12 c-0.16 -0.04 -0.36 -0.04 -0.48 -0.04 c-0.44 0 -0.68 0.12 -0.68 0.52 c0 0.2 0.08 0.48 0.16 0.8 z M82.57600000000001 29.72 c-0.04 0 -0.08 0.04 -0.08 0.12 c0 0.04 0.04 0.12 0.08 0.12 c0.08 0 0.08 -0.08 0.08 -0.12 c0 -0.08 0 -0.12 -0.08 -0.12 z M104.77600000000001 29.72 c-0.04 0 -0.08 0.04 -0.08 0.04 c0 0.04 0.04 0.08 0.08 0.08 c0.08 0 0.12 -0.04 0.12 -0.08 c0 0 -0.04 -0.04 -0.12 -0.04 z M103.77600000000001 29.08 c-0.04 0 -0.08 0.04 -0.08 0.04 c0 0.04 0.04 0.08 0.08 0.08 c0.08 0 0.08 -0.04 0.08 -0.08 c0 0 0 -0.04 -0.08 -0.04 z M104.17600000000002 29.08 l0.12 0.12 l0 -0.36 c-0.12 0 -0.12 0.12 -0.12 0.24 z M72.176 28.560000000000002 c-0.08 0 -0.12 0.08 -0.12 0.12 c0 0.08 0.04 0.16 0.12 0.16 s0.08 -0.08 0.08 -0.16 c0 -0.04 0 -0.12 -0.08 -0.12 z M104.656 28.560000000000002 c-0.04 0 -0.08 0.08 -0.08 0.12 c0 0.08 0.04 0.16 0.08 0.16 c0.08 0 0.08 -0.08 0.08 -0.16 c0 -0.04 0 -0.12 -0.08 -0.12 z M77.256 28.2 l-0.16 -0.24 c0.04 0 0.08 0.04 0.12 0.04 c0.2 0 0.32 -0.24 0.52 -0.32 l1.8 0 c0.36 0 0.32 0.16 0.44 0.16 c0.04 0 0.12 0 0.2 -0.04 c0.08 0.08 0.12 0.16 0.12 0.24 c0 0.28 -0.56 0.28 -0.76 0.4 l-1.52 0 c-0.04 0.16 -0.12 0.2 -0.2 0.2 c-0.2 0 -0.48 -0.36 -0.56 -0.44 z M102.77600000000001 28.08 c-0.08 0 -0.12 0.04 -0.12 0.12 c0 0.04 0.04 0.12 0.12 0.12 s0.08 -0.08 0.08 -0.12 c0 -0.08 0 -0.12 -0.08 -0.12 z M103.016 28.08 c-0.04 0 -0.08 0.04 -0.08 0.12 c0 0.04 0.04 0.12 0.08 0.12 c0.08 0 0.08 -0.08 0.08 -0.12 c0 -0.08 0 -0.12 -0.08 -0.12 z M104.016 27.96 c0.16 0.04 0.36 0.16 0.4 0.12 l0.12 -0.52 c0 -0.08 -0.16 -0.12 -0.4 -0.12 c-0.2 0 -0.4 0.04 -0.48 0.24 c0.16 0.08 0.28 0.12 0.36 0.28 z M104.656 27.96 l0.12 0.12 c0 -0.12 0 -0.28 -0.12 -0.28 l0 0.16 z M80.016 26.04 l0.16 0.24 c0.2 0.04 0.24 -0.2 0.24 -0.4 c0 -0.36 -0.12 -0.8 -0.12 -1 c-0.52 0 -0.92 -0.44 -1.04 -0.36 c-0.12 0.12 -1.12 0.52 -1.24 0.52 l-0.4 -0.28 c-0.28 0.16 -0.44 0.2 -0.76 0.2 c-0.4 0 -0.92 -0.12 -1.36 -0.12 c-0.08 0 -0.2 0 -0.28 0.04 c-0.36 0 -0.72 0.08 -1.04 -0.24 c-0.12 -0.16 -0.16 0.24 -0.24 0.4 l-0.64 0 c0 0.12 0.12 0.6 0.12 0.76 c0.84 0.2 2.2 0.04 2.44 0.24 c0.24 0 0.48 -0.24 0.76 -0.24 c1.12 0.16 3.48 0.08 3.4 0.24 z M93.61600000000001 26.04 c-0.2 -0.2 -0.24 -0.36 -0.24 -0.48 c0 -0.28 0.4 -0.4 0.88 -0.4 c0.36 0 0.76 0.08 0.88 0.24 l2.28 0 l0.28 0.24 c0.32 -0.2 0.52 -0.16 0.68 -0.16 c0.2 0 0.28 0.04 0.28 0.08 c0 0.2 -1.08 0.64 -1.48 0.64 c-0.2 0 -0.44 -0.56 -0.52 -0.4 l0 0.36 l-0.48 0 l0.12 -0.12 c-0.12 0 -1.68 0 -1.8 0.12 l0 -0.12 c-0.04 -0.04 -0.12 -0.04 -0.16 -0.04 c-0.2 0 -0.36 0.12 -0.52 0.12 c-0.08 0 -0.12 -0.04 -0.2 -0.08 z M80.536 25.16 c0 0 0.2 0.24 0.32 0.24 l0.08 0 c0 -0.12 -0.12 -0.4 -0.28 -0.4 c-0.04 0 -0.16 0 -0.12 0.16 z M99.21600000000001 24.880000000000003 c-0.04 0 -0.08 0.04 -0.08 0.08 s0.04 0.08 0.08 0.08 c0.08 0 0.08 -0.04 0.08 -0.08 s0 -0.08 -0.08 -0.08 z M80.936 24.759999999999998 l0 0.12 l0.12 -0.12 l-0.12 0 z M81.936 24.64 c-0.04 0 -0.08 0.04 -0.08 0.12 c0 0.04 0.04 0.12 0.08 0.12 c0.08 0 0.08 -0.08 0.08 -0.12 c0 -0.08 0 -0.12 -0.08 -0.12 z M89.176 24.119999999999997 l0 0.28 l0.12 0 c0 -0.12 0 -0.28 -0.12 -0.28 z M74.05600000000001 24 l0.12 0.28 c0.28 -0.28 0.84 -0.36 1.4 -0.36 c0.64 0 1.28 0.24 1.52 0.24 c0.32 0 0.64 -0.44 0.96 -0.44 s0.64 0.28 1.04 0.28 c1.04 0 1.08 -0.88 1.56 -0.88 c0 -0.12 -0.08 -0.44 -0.28 -0.44 c0 0 -0.04 0 -0.08 0.04 c-0.64 0.28 -1.04 0.32 -1.44 0.32 c-0.44 0 -0.84 -0.08 -1.44 -0.08 c-0.16 0 -1.16 0.16 -2.2 0.16 c-0.32 0 -1 -0.24 -1.48 -0.24 c-0.36 0 -0.56 0.12 -0.56 0.56 c0 0.36 0.16 0.76 0.48 0.76 c0.12 0 0.24 -0.04 0.4 -0.2 z M96.936 23.48 c-0.08 0 -0.12 0.08 -0.12 0.12 c0 0.08 0.04 0.16 0.12 0.16 s0.08 -0.08 0.08 -0.16 c0 -0.04 0 -0.12 -0.08 -0.12 z M82.456 23.24 l0 0.24 l0.24 -0.12 c0 -0.12 -0.12 -0.12 -0.24 -0.12 z M96.77600000000001 22.88 l0.16 0.12 c0.12 -0.32 1.8 -0.96 1.8 -1.32 c0 -0.08 -1.16 -0.4 -1.2 -0.48 c-0.32 0 -0.68 0.4 -1 0.4 c-0.28 0 -0.52 -0.08 -0.76 -0.08 c-0.48 0 -0.88 0.12 -1.36 0.12 c-0.4 0 -1.36 -0.44 -1.92 -0.44 c-0.52 0 -0.56 0.52 -0.56 0.72 c0 0.32 0.28 0.4 0.6 0.4 c1.16 0 1.8 -0.52 2.72 -0.52 c0.2 0 0.48 0 0.48 0.32 c0 0.24 -0.2 0.6 -0.6 0.6 l0 0.76 z M84.736 22.6 c-0.04 0 -0.08 0.08 -0.08 0.12 c0 0.08 0.04 0.16 0.08 0.16 c0.08 0 0.08 -0.08 0.08 -0.16 c0 -0.04 0 -0.12 -0.08 -0.12 z M72.936 22.36 c0.04 0.12 0.2 0.16 0.36 0.16 c0.92 0 1.32 -0.32 2.04 -0.32 c1.4 0 2.68 0.16 4 0.16 c0.92 0 1.12 -0.24 1.12 -0.6 c0 -0.08 -0.04 -0.2 -0.04 -0.4 s0.08 -0.64 0.08 -1.08 c0 -0.6 -0.08 -1 -0.6 -1 c-0.4 0 -0.96 0.16 -1.28 0.16 c-0.08 -0.04 -0.2 -0.04 -0.32 -0.04 c-0.52 0 -1.2 0.16 -1.32 0.16 c-0.04 -0.16 -0.8 -0.12 -1.28 -0.12 s-2.52 0 -2.64 0.36 s-0.16 0.8 -0.16 1.28 c0 0.52 0.04 1 0.04 1.28 z M91.696 22.36 c-0.04 0 -0.08 0.04 -0.08 0.12 c0 0.04 0.04 0.12 0.08 0.12 c0.08 0 0.12 -0.08 0.12 -0.12 c0 -0.08 -0.04 -0.12 -0.12 -0.12 z M84.736 22.24 c-0.04 0 -0.08 0.04 -0.08 0.12 c0 0.04 0.04 0.12 0.08 0.12 c0.08 0 0.08 -0.08 0.08 -0.12 c0 -0.08 0 -0.12 -0.08 -0.12 z M94.256 22.24 l-0.12 0.12 l0.12 0 l0 -0.12 z M99.33600000000001 22.24 c-0.04 0 -0.08 0.04 -0.08 0.12 c0 0.04 0.04 0.12 0.08 0.12 c0.08 0 0.08 -0.08 0.08 -0.12 c0 -0.08 0 -0.12 -0.08 -0.12 z M95.41600000000001 22.12 c-0.08 0 -0.12 0.04 -0.12 0.12 c0 0.04 0.04 0.12 0.12 0.12 s0.08 -0.08 0.08 -0.12 c0 -0.08 0 -0.12 -0.08 -0.12 z M101.736 21.6 l0.12 0.12 l0 -0.12 l-0.12 0 z M74.816 21.2 l-1.28 0 l-0.12 -0.24 c0.44 -0.32 1.04 -0.48 1.64 -0.48 c0.4 0 0.76 0.24 1.08 0.24 c0.08 0 0.24 -0.2 0.56 -0.2 c0.16 0 0.32 0.04 0.56 0.2 l2.52 0 c0 0.28 -2.24 0.6 -3.12 0.6 c-0.64 0 -1.4 -0.12 -1.84 -0.12 z M93.61600000000001 20.84 c0.4 0.04 0.68 0.08 0.96 0.08 c0.36 0 0.76 0 1.2 -0.2 c0.44 0 0.88 0.24 1.32 0.24 c0.32 0 1.72 -0.28 1.6 -0.4 c0.64 0 1.28 0.28 1.92 0.28 c0.12 -0.28 0.12 -0.52 0.12 -0.76 c-0.36 -0.2 -0.76 -0.24 -1.12 -0.24 l-0.52 0 c-0.6 0 -1.64 -0.2 -2.16 -0.28 l0 -0.12 c0 -0.24 2.76 -0.4 3.04 -0.4 c0.04 -0.12 0.12 -0.16 0.24 -0.16 c0.32 0 0.84 0.2 1.12 0.2 c0.2 0 0.28 -0.04 0.28 -0.2 c0 -0.32 -0.16 -0.96 -0.4 -0.96 c-0.04 0 -0.12 0.04 -0.24 0.12 l-1.64 0 l-0.24 0.12 c0 -0.24 -0.16 -0.24 -0.28 -0.24 c-0.52 0.08 -1 0.12 -1.44 0.12 c-0.96 0 -1.8 -0.16 -2.88 -0.16 c-0.2 0 -0.4 0.04 -0.64 0.04 c0 -0.52 0.48 -0.56 0.92 -0.56 c1.04 0 2.24 0.16 3.2 0.16 l0.6 0 l0.12 0.12 c0.12 -0.24 0.52 -0.32 1 -0.32 c0.56 0 1.2 0.08 1.52 0.08 c0.12 0 0.16 0 0.16 -0.04 c0 -0.24 -0.52 -1.12 -0.52 -1.36 c0 0.04 -0.04 0.04 -0.04 0.04 c-0.12 0 -0.2 -0.56 -0.44 -0.56 c-0.08 0 -0.12 1 -0.52 1 c-0.12 0 -0.24 -0.08 -0.4 -0.2 l-2.4 0 l-0.28 0.12 l-2.92 0 c-0.24 -0.12 -0.48 -0.12 -0.76 -0.12 c0.16 0.4 0.44 0.96 0.44 1.4 c0 0.64 -0.32 0.84 -0.32 1.24 c0 0.16 0 0.32 0.04 0.52 c0.28 -0.24 0.92 -0.36 1.56 -0.36 c0.72 0 1.52 0.16 1.84 0.36 c0 0.08 -1.44 0.44 -2.24 0.44 c-0.36 0 -0.6 -0.04 -0.6 -0.2 c0 -0.04 0.04 -0.08 0.04 -0.12 c-0.04 -0.04 -0.08 -0.04 -0.12 -0.04 c-0.4 0 -0.76 0.68 -0.76 1.08 s0.36 0.2 0.64 0.24 z M100.976 20.84 c-0.04 0 -0.08 0.04 -0.08 0.12 c0 0.04 0.04 0.12 0.08 0.12 c0.08 0 0.08 -0.08 0.08 -0.12 c0 -0.08 0 -0.12 -0.08 -0.12 z M81.41600000000001 19.32 l0 0.12 l0.28 0 c0 -0.12 -0.16 -0.12 -0.28 -0.12 z M82.57600000000001 19.32 c0 0.08 0 0.12 0.08 0.12 c0.12 0 0.16 -0.08 0.16 -0.16 s-0.04 -0.2 -0.12 -0.24 z M78.61600000000001 18.68 l0.52 0.36 c0.88 -0.52 1.32 -0.48 1.32 -1.28 c0 -0.68 -0.44 -1.52 -0.44 -1.88 l-0.24 0 c-0.56 0 -1.84 -0.24 -2.4 -0.24 c0 -0.28 0 -0.52 0.12 -0.64 c0.76 0.12 1.64 0 2.4 0.24 l0.12 -0.24 c0.12 0.08 0.2 0.12 0.28 0.12 c0.64 0 0.16 -2.28 0.6 -2.28 c0.04 0 0.08 0.04 0.16 0.04 s0.72 -0.6 0.72 -0.6 c0.28 0 0.92 0.24 1.36 0.24 c0.2 0 0.36 -0.04 0.44 -0.2 c0.48 0 1 -0.04 1.56 -0.04 c0.8 0 1.68 0.04 2.28 0.28 c0.08 0.04 0.24 -0.08 0.36 -0.12 c0.12 0 0.52 0.4 0.76 0.4 c1.16 0.36 2.16 0.76 3.32 1.28 c0.4 0.2 0.56 1.84 1.16 1.84 c0.12 0 0.28 -0.08 0.48 -0.32 c0.92 0 1.96 0 2.8 -0.28 l0.12 0.28 c0.12 0.12 2.52 0.12 2.68 0.12 c0.24 0 0.76 -0.28 0.88 -0.4 c-0.2 -0.6 -0.68 -0.72 -1.16 -0.72 c-0.32 0 -0.64 0.08 -0.92 0.08 c-0.16 0 -0.28 -0.04 -0.36 -0.12 c-0.52 0.04 -0.8 0.08 -1.08 0.08 c-0.4 0 -0.76 -0.24 -1.64 -0.24 c0.08 0 -0.52 0.28 -1.08 0.28 c-0.12 0 -0.36 -0.24 -0.48 -0.36 l-0.16 0.24 c-0.24 0 -0.8 0.08 -0.8 -0.32 c0 -0.24 0.24 -0.28 0.48 -0.28 l0.4 0 c0.32 0 0.44 -0.16 0.88 -0.16 c0.08 0 0.16 0.04 0.2 0.12 l1.64 0 c0.08 0.12 0.2 0.16 0.32 0.16 c0.6 0 0.72 -0.32 0.88 -0.32 c0.28 0 0.68 0.16 0.96 0.16 c0.04 -0.12 0.04 -0.2 0.04 -0.24 c0 -0.44 -0.72 -0.16 -1.04 -0.36 c-0.6 -0.48 -1.88 -0.8 -2.92 -0.8 c0 0.16 0 0.4 0.12 0.4 c0 0.12 -0.84 0.24 -1.6 0.24 c-0.6 0 -1.16 -0.08 -1.2 -0.24 l-0.64 0.24 c-0.12 -0.12 -0.64 -0.24 -0.64 -0.56 l0 -0.08 l1.92 0 c0.04 -0.04 0.04 -0.12 0.04 -0.16 c0 -0.72 -2.08 -0.24 -2.6 -0.72 c-0.24 0 -1.76 0.4 -1.76 0.4 c-0.6 -0.4 -0.88 -0.52 -1.12 -0.52 c-0.32 0 -0.44 0.24 -1.16 0.24 c-0.4 0 -0.76 -0.12 -1.16 -0.12 c-0.28 0.08 -0.8 0.32 -1.16 0.32 c-0.24 0 -0.4 -0.12 -0.68 -0.12 c-0.48 0 -1.12 0.16 -1.48 0.16 c-0.12 0 -0.2 -0.04 -0.24 -0.08 c-0.28 0.04 -0.52 0.08 -0.76 0.08 c-0.6 0 -1.16 -0.12 -1.8 -0.12 c-0.32 0 -2.12 0.48 -2.12 1.04 c0.12 0 0.36 -0.04 0.6 -0.04 s0.48 0.04 0.68 0.16 l2.16 0 c0.08 0 0.12 0.04 0.12 0.12 c0 1.04 -2.44 0.56 -3.8 0.92 c-0.24 -0.16 -0.52 -0.44 -0.72 -0.44 c-0.28 0 -0.8 0.24 -1.24 0.24 c-0.24 0 -0.44 -0.04 -0.6 -0.2 c-0.16 0.36 -0.24 0.48 -0.24 0.56 s0.08 0.12 0.12 0.44 c0.08 0.56 0.12 0.72 0.2 0.72 s0.24 -0.44 0.68 -0.44 l0.4 0 c0.44 0 0.84 -0.16 1.16 -0.16 c0.2 0 0.32 0.08 0.48 0.28 c0.12 0 0.44 -0.12 0.72 -0.12 c0.2 0 0.32 0.08 0.32 0.32 c0 0.08 0 0.2 -0.04 0.32 c-0.12 -0.16 -0.2 -0.24 -0.32 -0.24 c-0.2 0 -0.36 0.4 -0.72 0.4 c-0.04 0 -0.12 0 -0.2 -0.04 l0 -0.12 c-0.12 0.12 -0.28 0.16 -0.48 0.16 c-0.4 0 -0.92 -0.2 -1.2 -0.2 c-0.16 0 -0.24 0.04 -0.24 0.16 l-0.88 0 c-0.08 0 -0.12 0.04 -0.12 0.12 c0 0.2 0.36 0.68 0.36 0.76 c-0.16 0.28 -0.24 0.68 -0.24 1.08 c0 0.48 0.12 0.88 0.6 0.88 c0.08 0 0.16 0 0.28 -0.04 c0.36 -0.04 1.24 0.24 1.64 0.24 c0.32 0 0.56 -0.16 0.84 -0.16 c0.04 0 0.12 0 0.2 0.04 c0.4 0 0.84 -0.16 1.32 -0.16 c0.24 0 0.48 0.04 0.68 0.16 z M80.016 18.8 c-0.04 0 -0.08 0.04 -0.08 0.12 c0 0.04 0.04 0.12 0.08 0.12 c0.08 0 0.12 -0.08 0.12 -0.12 c0 -0.08 -0.04 -0.12 -0.12 -0.12 z M80.296 18.68 c-0.04 0 -0.08 0.04 -0.08 0.12 c0 0.04 0.04 0.12 0.08 0.12 c0.08 0 0.08 -0.08 0.08 -0.12 c0 -0.08 0 -0.12 -0.08 -0.12 z M74.57600000000001 17.64 c-0.6 0.04 -0.92 0 -0.92 -0.44 c0 -0.2 0.12 -0.48 0.36 -0.48 c0.16 0 0.48 0.16 0.76 0.16 s0.52 -0.12 0.68 -0.48 c0.4 0.48 0.88 0.24 1.4 0.48 l2.68 0 c0.2 0 0.4 0.2 0.4 0.4 c0 0.12 -1.4 0.36 -1.8 0.36 c-0.12 0 -0.28 -0.04 -0.48 -0.04 s-0.4 0.04 -0.56 0.2 c0.04 -0.28 -0.28 -0.36 -0.48 -0.36 c-0.52 0 -1.16 0.4 -1.52 0.48 c-0.08 0.08 -0.32 -0.16 -0.52 -0.28 z M102.61600000000001 17.64 l0 0.28 c0.24 -0.12 0.56 -0.32 0.56 -0.56 c0 0 0 -0.04 -0.04 -0.08 c-0.12 0 -0.36 0.24 -0.52 0.36 z M74.936 17.52 l0 0.12 l0.16 0 z M103.656 17.04 l0 0.36 l0.12 0 c0 -0.12 0 -0.36 -0.12 -0.36 z M99.976 15.64 l-0.12 0.12 l0.12 0 l0 -0.12 z M79.77600000000001 15.48 c-0.04 0 -0.08 0.08 -0.08 0.12 c0 0.08 0.04 0.16 0.08 0.16 c0.08 0 0.08 -0.08 0.08 -0.16 c0 -0.04 0 -0.12 -0.08 -0.12 z M74.69600000000001 15.36 c-0.04 0 -0.08 0.08 -0.08 0.12 c0 0.08 0.04 0.16 0.08 0.16 c0.08 0 0.08 -0.08 0.08 -0.16 c0 -0.04 0 -0.12 -0.08 -0.12 z M100.49600000000001 14.600000000000001 l0 0.28 l0.12 0 l0 -0.28 l-0.12 0 z M82.456 14.239999999999998 c-0.04 0 -0.08 0.04 -0.08 0.12 c0 0.04 0.04 0.12 0.08 0.12 c0.08 0 0.08 -0.08 0.08 -0.12 c0 -0.08 0 -0.12 -0.08 -0.12 z M83.696 13.84 c-0.04 0 -0.08 0.08 -0.08 0.12 c0 0.08 0.04 0.16 0.08 0.16 c0.08 0 0.12 -0.08 0.12 -0.16 c0 -0.04 -0.04 -0.12 -0.12 -0.12 z M98.57600000000001 13.48 l0.12 0.12 l0 -0.24 l-0.12 0 l0 0.12 z M89.41600000000001 13.36 l0 0.12 l0.12 0 z M73.41600000000001 12.96 l0.12 0.12 c0.6 0 2.12 0.12 2.12 -0.48 c0 -0.2 -0.16 -0.28 -0.44 -0.28 c-0.44 0 -1.08 0.24 -1.16 0.24 l-0.28 0 c-0.2 0 -0.36 0.04 -0.36 0.24 l0 0.16 z M93.096 12.84 c-0.04 0 -0.08 0.04 -0.08 0.12 c0 0.04 0.04 0.12 0.08 0.12 c0.08 0 0.12 -0.08 0.12 -0.12 c0 -0.08 -0.04 -0.12 -0.12 -0.12 z M84.33600000000001 12.84 c0 -0.08 -0.04 -0.08 -0.04 -0.08 c-0.04 0 -0.08 0 -0.08 0.08 c0 0.04 0.04 0.08 0.08 0.08 c0 0 0.04 -0.04 0.04 -0.08 z M92.61600000000001 12.440000000000001 l0.12 0.12 c0.08 -0.04 0.12 -0.16 0.12 -0.24 c0 -0.12 -0.04 -0.28 -0.16 -0.28 s-0.04 0.28 -0.08 0.4 z M94.016 12.32 c-0.08 0 -0.12 0.04 -0.12 0.12 c0 0.04 0.04 0.12 0.12 0.12 s0.08 -0.08 0.08 -0.12 c0 -0.08 0 -0.12 -0.08 -0.12 z M96.176 12.2 c-0.08 0 -0.12 0.04 -0.12 0.12 c0 0.04 0.04 0.12 0.12 0.12 s0.08 -0.08 0.08 -0.12 c0 -0.08 0 -0.12 -0.08 -0.12 z M98.456 11.96 c-0.04 0 -0.08 0.04 -0.08 0.04 c0 0.04 0.04 0.08 0.08 0.08 c0.08 0 0.08 -0.04 0.08 -0.08 c0 0 0 -0.04 -0.08 -0.04 z M93.736 11.68 c-0.04 0 -0.08 0.08 -0.08 0.12 c0 0.08 0.04 0.16 0.08 0.16 c0.08 0 0.08 -0.08 0.08 -0.16 c0 -0.04 0 -0.12 -0.08 -0.12 z M92.61600000000001 11.2 c-0.04 0 -0.08 0.04 -0.08 0.12 c0 0.04 0.04 0.12 0.08 0.12 c0.08 0 0.08 -0.08 0.08 -0.12 c0 -0.08 0 -0.12 -0.08 -0.12 z"/></g><g id="SvgjsG3690" featureKey="sloganFeature-0" transform="matrix(1.174090426194886,0,0,1.174090426194886,35,107.77894488184543)" fill="#fff"><path d="M2.28 15.86 l-2.28 -0.36 l2.22 -13.06 l2.28 0.38 z M8.9925 18.68 l-2.28 -0.38 l1.9 -11.68 l2.18 -0.34 l3.04 5.94 l2.82 -11.18 l2.24 0.56 l-3.56 14.18 l-2.16 0.24 l-2.84 -5.54 z M23.865000000000002 16.68 c-0.9 0 -1.72 -0.4 -2.32 -1.12 c-1 -1.18 -1.32 -3.12 -0.92 -5.32 c0.68 -3.74 2.84 -6.3 5.2 -6.26 c1.1 0.02 2.02 0.44 2.66 1.22 c0.94 1.16 1.22 3.04 0.78 5.46 l0 0 c-0.7 3.96 -3.24 6.02 -5.4 6.02 z M25.765 6.300000000000001 c-0.86 0 -2.3 1.34 -2.86 4.36 c-0.32 1.76 0.02 2.94 0.42 3.42 c0.2 0.24 0.4 0.28 0.54 0.28 c1 0 2.62 -1.28 3.12 -4.1 c0.3 -1.66 0.18 -3 -0.3 -3.58 c-0.14 -0.18 -0.36 -0.36 -0.9 -0.38 l-0.02 0 z M37.0775 17.92 l-2.14 -0.38 c-0.76 -4 -1.92 -10.06 -1.98 -10.38 l0.98 -0.22 l1.24 -0.4 c0.02 0.08 0.06 0.14 1.46 7.6 l6.84 -11.38 l2 1.2 z M56.83 13.54 l-1.7 0.16 l0.76 6.58 l-2.3 0.26 l-0.76 -6.62 l-3.96 0.36 l-1.82 3.42 l-2.04 -1.08 l1.12 -2.12 l-0.22 -2.26 l1.5 -0.14 l4.46 -8.34 l2.16 0.42 l0.84 7.22 l1.74 -0.18 z M50.19 11.84 l2.36 -0.24 l-0.4 -3.46 z M70.2825 4.539999999999999 l-5.32 0.18 l-2.84 17.56 l-2.28 -0.46 l2.74 -17.02 l-4.36 0.14 l-0.06 -2.32 l12.04 -0.4 z M71.95500000000001 13.9 l3.9 -0.68 l0.4 2.3 l-7.88 1.34 l-0.38 -2.28 l1.46 -0.26 l0.74 -3.08 l-0.36 -2.1 l0.9 -0.16 l0.42 -1.68 l-1.5 0.26 l-0.38 -2.3 l9.14 -1.54 l0.38 2.28 l-5.16 0.88 l-0.4 1.68 l1.84 -0.32 l0.38 2.3 l-2.82 0.48 z M84.3275 17.34 l1.38 1.48 l-2.46 7.64 l-2.2 -0.7 l1.82 -5.68 l-0.46 0.1 l-0.52 -2.26 z M93.1 15.86 l-2.28 -0.36 l2.22 -13.06 l2.28 0.38 z M99.81249999999999 18.68 l-2.28 -0.38 l1.9 -11.68 l2.18 -0.34 l3.04 5.94 l2.82 -11.18 l2.24 0.56 l-3.56 14.18 l-2.16 0.24 l-2.84 -5.54 z M115.66499999999999 17.92 l-2.14 -0.38 c-0.76 -4 -1.92 -10.06 -1.98 -10.38 l0.98 -0.22 l1.24 -0.4 c0.02 0.08 0.06 0.14 1.46 7.6 l6.84 -11.38 l2 1.2 z M128.1575 13.9 l3.9 -0.68 l0.4 2.3 l-7.88 1.34 l-0.38 -2.28 l1.46 -0.26 l0.74 -3.08 l-0.36 -2.1 l0.9 -0.16 l0.42 -1.68 l-1.5 0.26 l-0.38 -2.3 l9.14 -1.54 l0.38 2.28 l-5.16 0.88 l-0.4 1.68 l1.84 -0.32 l0.38 2.3 l-2.82 0.48 z M132.47 24.1 l-0.72 -2.2 c2.34 -0.78 9 -3.72 8.92 -6.78 c-0.04 -1.08 -0.72 -1.64 -1.8 -2.48 c-1.08 -0.82 -2.42 -1.84 -2.42 -3.74 c0 -3.2 3.54 -4.72 5.62 -5.12 l0.42 2.28 l-0.2 -1.14 l0.22 1.14 c-0.04 0.02 -3.74 0.78 -3.74 2.84 c0 0.72 0.54 1.16 1.5 1.9 c1.12 0.86 2.64 2.02 2.7 4.24 c0.18 5.34 -9.4 8.7 -10.5 9.06 z M156.8825 4.539999999999999 l-5.32 0.18 l-2.84 17.56 l-2.28 -0.46 l2.74 -17.02 l-4.36 0.14 l-0.06 -2.32 l12.04 -0.4 z M160.375 17.34 l1.38 1.48 l-2.46 7.64 l-2.2 -0.7 l1.82 -5.68 l-0.46 0.1 l-0.52 -2.26 z M169.1475 15.86 l-2.28 -0.36 l2.22 -13.06 l2.28 0.38 z M175.86 18.68 l-2.28 -0.38 l1.9 -11.68 l2.18 -0.34 l3.04 5.94 l2.82 -11.18 l2.24 0.56 l-3.56 14.18 l-2.16 0.24 l-2.84 -5.54 z M183.53250000000003 24.1 l-0.72 -2.2 c2.34 -0.78 9 -3.72 8.92 -6.78 c-0.04 -1.08 -0.72 -1.64 -1.8 -2.48 c-1.08 -0.82 -2.42 -1.84 -2.42 -3.74 c0 -3.2 3.54 -4.72 5.62 -5.12 l0.42 2.28 l-0.2 -1.14 l0.22 1.14 c-0.04 0.02 -3.74 0.78 -3.74 2.84 c0 0.72 0.54 1.16 1.5 1.9 c1.12 0.86 2.64 2.02 2.7 4.24 c0.18 5.34 -9.4 8.7 -10.5 9.06 z M205.88500000000002 8.48 c0 2.9 -3.74 4.72 -6.4 5.66 l-0.94 4.28 l-2.26 -0.48 l0.72 -3.34 l-0.48 -2 c0.32 -0.06 0.64 -0.16 0.98 -0.26 l1.02 -4.66 c-0.3 0.08 -0.58 0.16 -0.86 0.28 l-0.8 -2.18 c1.2 -0.44 5.28 -1.72 7.62 -0.08 c0.92 0.64 1.4 1.6 1.4 2.78 z M200.06500000000003 11.4 c1.9 -0.82 3.5 -1.9 3.5 -2.92 c0 -0.54 -0.2 -0.74 -0.4 -0.88 c-0.46 -0.32 -1.22 -0.44 -2.18 -0.38 z M211.99750000000003 15.86 l-2.28 -0.36 l2.22 -13.06 l2.28 0.38 z M227.77000000000004 19.7 l-1.72 1.56 l-6.86 -7.54 l-1.08 4.46 l-2.24 -0.54 l2.2 -9.24 c-0.3 0.12 -0.6 0.24 -0.92 0.38 l-0.96 -2.1 c5.1 -2.32 7.4 -1.32 8.32 -0.5 c0.92 0.8 1.24 2 0.86 3.22 c-0.56 1.84 -2.52 2.72 -4.12 3.16 z M220.63000000000005 7.640000000000001 l-0.68 2.84 c1.3 -0.26 2.92 -0.82 3.2 -1.76 c0.08 -0.24 0.1 -0.56 -0.16 -0.8 c-0.36 -0.32 -1.14 -0.48 -2.36 -0.28 z M231.64250000000004 13.9 l3.9 -0.68 l0.4 2.3 l-7.88 1.34 l-0.38 -2.28 l1.46 -0.26 l0.74 -3.08 l-0.36 -2.1 l0.9 -0.16 l0.42 -1.68 l-1.5 0.26 l-0.38 -2.3 l9.14 -1.54 l0.38 2.28 l-5.16 0.88 l-0.4 1.68 l1.84 -0.32 l0.38 2.3 l-2.82 0.48 z"/></g>
			</g>
		</svg>
	